<?xml version="1.0" encoding="UTF-8" standalone="no"?>
<!DOCTYPE svg PUBLIC "-//W3C//DTD SVG 1.1//EN" "http://www.w3.org/Graphics/SVG/1.1/DTD/svg11.dtd">
<svg width="100%" height="100%" viewBox="0 0 650 1272" version="1.1" xmlns="http://www.w3.org/2000/svg" xmlns:xlink="http://www.w3.org/1999/xlink" xml:space="preserve" xmlns:serif="http://www.serif.com/" style="fill-rule:evenodd;clip-rule:evenodd;stroke-linejoin:round;stroke-miterlimit:10;">
    <g transform="matrix(1,0,0,1,-464.967,-119.78)">
        <g transform="matrix(4.16667,0,0,4.16667,0,0)">
            <g transform="matrix(0,-1,-1,0,209.475,133.524)">
                <path d="M-10.211,2.736L2.638,2.736L2.656,2.746L2.736,10.211L-10.211,2.736Z" style="fill:rgb(0,84,143);fill-rule:nonzero;"/>
            </g>
        </g>
        <g transform="matrix(4.16667,0,0,4.16667,0,0)">
            <g transform="matrix(-43.2675,73.8024,73.8024,43.2675,263.958,172.351)">
                <path d="M1.079,0.679L1.607,0.679L0.601,-0.633L-0.105,-0.763L1.079,0.679Z" style="fill:url(#_Linear1);fill-rule:nonzero;"/>
            </g>
        </g>
        <g transform="matrix(4.16667,0,0,4.16667,0,0)">
            <g transform="matrix(0.858686,0.512502,0.512502,-0.858686,146.993,134.749)">
                <path d="M7.262,-2.003C8.827,-2.002 10.096,4.345 10.096,12.166C10.095,19.992 8.828,26.337 7.262,26.335C5.697,26.336 4.427,19.992 4.428,12.168C4.43,4.341 5.698,-2.004 7.262,-2.003" style="fill:rgb(99,100,102);fill-rule:nonzero;"/>
            </g>
        </g>
        <g transform="matrix(4.16667,0,0,4.16667,0,0)">
            <g transform="matrix(0.858686,0.512502,0.512502,-0.858686,146.993,134.749)">
                <ellipse cx="7.262" cy="12.167" rx="2.834" ry="14.17" style="fill:none;stroke:rgb(35,31,32);stroke-width:0.2px;"/>
            </g>
        </g>
        <g transform="matrix(4.16667,0,0,4.16667,0,0)">
            <g transform="matrix(0.674372,0.738392,0.738392,-0.674372,131.167,118.532)">
                <path d="M12.555,-5.537C14.433,-5.536 15.956,2.075 15.956,11.465C15.956,20.856 14.436,28.469 12.555,28.468C10.678,28.47 9.155,20.856 9.156,11.466C9.154,2.077 10.676,-5.538 12.555,-5.537" style="fill:rgb(35,31,32);fill-rule:nonzero;"/>
            </g>
        </g>
        <g transform="matrix(4.16667,0,0,4.16667,0,0)">
            <g transform="matrix(0.674372,0.738392,0.738392,-0.674372,131.167,118.532)">
                <ellipse cx="12.555" cy="11.466" rx="3.401" ry="17.004" style="fill:none;stroke:rgb(0,32,87);stroke-width:0.2px;"/>
            </g>
        </g>
        <g transform="matrix(4.16667,0,0,4.16667,0,0)">
            <g transform="matrix(17.3333,-5.33333,-5.33333,-17.3333,121.294,121.775)">
                <path d="M1.496,0.163C1.071,0.086 0.715,0.092 0.699,0.177L0.794,-0.342C0.809,-0.427 1.166,-0.433 1.59,-0.356C2.015,-0.279 2.347,-0.148 2.331,-0.063L2.237,0.457C2.252,0.372 1.92,0.24 1.496,0.163Z" style="fill:url(#_Linear2);fill-rule:nonzero;"/>
            </g>
        </g>
        <g transform="matrix(4.16667,0,0,4.16667,0,0)">
            <g transform="matrix(1,0,0,1,157.628,124.86)">
                <path d="M0,-22.93C0.72,-21.538 -4.328,-17.492 -11.275,-13.889C-18.223,-10.289 -24.437,-8.499 -25.156,-9.887L-20.752,-1.387C-20.033,0 -13.814,-1.79 -6.867,-5.391C0.078,-8.993 5.127,-13.039 4.406,-14.43L0,-22.93Z" style="fill:none;fill-rule:nonzero;stroke:rgb(108,110,112);stroke-width:0.2px;"/>
            </g>
        </g>
        <g transform="matrix(4.16667,0,0,4.16667,0,0)">
            <g transform="matrix(0.460293,0.887767,0.887767,-0.460293,133.469,100.288)">
                <path d="M12.578,-7.645C14.141,-7.646 15.412,-1.304 15.414,6.52C15.414,14.345 14.145,20.69 12.578,20.691C11.013,20.691 9.746,14.348 9.745,6.522C9.743,-1.303 11.011,-7.647 12.578,-7.645" style="fill:rgb(99,100,102);fill-rule:nonzero;"/>
            </g>
        </g>
        <g transform="matrix(4.16667,0,0,4.16667,0,0)">
            <g transform="matrix(0.460293,0.887767,0.887767,-0.460293,133.469,100.288)">
                <ellipse cx="12.578" cy="6.522" rx="2.836" ry="14.169" style="fill:none;stroke:rgb(35,31,32);stroke-width:0.2px;"/>
            </g>
        </g>
        <g transform="matrix(4.16667,0,0,4.16667,0,0)">
            <g transform="matrix(43.2675,73.8024,-73.8024,43.2675,115.063,172.259)">
                <path d="M1.079,0.679L1.607,0.679L0.601,-0.633L-0.105,-0.763L1.079,0.679Z" style="fill:url(#_Linear3);fill-rule:nonzero;"/>
            </g>
        </g>
        <g transform="matrix(4.16667,0,0,4.16667,0,0)">
            <g transform="matrix(33.0667,0,0,-33.0667,135.546,125.561)">
                <path d="M0.449,0.09C0.239,-0.101 0.038,-0.223 -0,-0.181L0.234,-0.437C0.273,-0.479 0.474,-0.358 0.683,-0.166C0.893,0.025 1.032,0.214 0.994,0.256L0.759,0.513C0.798,0.471 0.659,0.282 0.449,0.09Z" style="fill:url(#_Linear4);fill-rule:nonzero;"/>
            </g>
        </g>
        <g transform="matrix(4.16667,0,0,4.16667,0,0)">
            <g transform="matrix(1,0,0,1,160.655,141.405)">
                <path d="M0,-32.8C1.269,-31.412 -3.327,-25.155 -10.263,-18.822C-17.195,-12.49 -23.843,-8.483 -25.109,-9.868L-17.364,-1.385C-16.096,0 -9.448,-4.007 -2.516,-10.34C4.42,-16.671 9.015,-22.929 7.747,-24.317L0,-32.8Z" style="fill:none;fill-rule:nonzero;stroke:rgb(0,74,128);stroke-width:0.2px;"/>
            </g>
        </g>
        <g transform="matrix(4.16667,0,0,4.16667,0,0)">
            <g transform="matrix(0.184566,0.98282,0.98282,-0.184566,133.406,79.8649)">
                <path d="M16.71,-13.864C18.587,-13.865 20.11,-6.252 20.11,3.137C20.111,12.528 18.589,20.141 16.71,20.14C14.833,20.141 13.31,12.529 13.308,3.14C13.309,-6.252 14.831,-13.865 16.71,-13.864" style="fill:rgb(35,31,32);fill-rule:nonzero;"/>
            </g>
        </g>
        <g transform="matrix(4.16667,0,0,4.16667,0,0)">
            <g transform="matrix(0.184566,0.98282,0.98282,-0.184566,133.406,79.8649)">
                <ellipse cx="16.71" cy="3.138" rx="3.402" ry="17.003" style="fill:none;stroke:rgb(0,32,87);stroke-width:0.2px;"/>
            </g>
        </g>
        <g transform="matrix(4.16667,0,0,4.16667,0,0)">
            <g transform="matrix(-5.36212,-216.922,-216.922,5.36212,190.913,328.511)">
                <path d="M0.923,0.075L-0.022,0.098L0.039,0.005L-0.026,-0.075L0.912,-0.098L0.923,0.075Z" style="fill:url(#_Linear5);fill-rule:nonzero;"/>
            </g>
        </g>
        <g transform="matrix(4.16667,0,0,4.16667,0,0)">
            <g transform="matrix(0.962077,0.272779,0.272779,-0.962077,159.25,150.767)">
                <path d="M4.638,-0.645C6.518,-0.644 8.038,6.967 8.039,16.358C8.04,25.75 6.516,33.362 4.638,33.361C2.761,33.364 1.24,25.748 1.238,16.357C1.237,6.967 2.761,-0.644 4.638,-0.645" style="fill:rgb(35,31,32);fill-rule:nonzero;"/>
            </g>
        </g>
        <g transform="matrix(4.16667,0,0,4.16667,0,0)">
            <g transform="matrix(0.962077,0.272779,0.272779,-0.962077,159.25,150.767)">
                <ellipse cx="4.639" cy="16.359" rx="3.402" ry="17.004" style="fill:none;stroke:rgb(0,32,87);stroke-width:0.2px;"/>
            </g>
        </g>
        <g transform="matrix(4.16667,0,0,4.16667,0,0)">
            <g transform="matrix(44.9499,4.9164,4.9164,-44.9499,92.6987,84.9526)">
                <path d="M0.8,-0.085C0.801,-0.119 0.942,-0.143 1.115,-0.137C1.288,-0.131 1.427,-0.099 1.426,-0.064L1.419,0.147C1.42,0.113 1.281,0.08 1.108,0.075C0.935,0.069 0.794,0.092 0.793,0.127L0.8,-0.085Z" style="fill:url(#_Linear6);fill-rule:nonzero;"/>
            </g>
        </g>
        <g transform="matrix(4.16667,0,0,4.16667,0,0)">
            <g transform="matrix(1,0,0,1,157.224,95.0342)">
                <path d="M0,-9.732C-0.119,-8.173 -6.539,-7.388 -14.344,-7.983C-22.146,-8.58 -28.373,-10.327 -28.256,-11.888L-28.983,-2.342C-29.104,-0.781 -22.873,0.965 -15.072,1.563C-7.27,2.156 -0.846,1.375 -0.729,-0.186L0,-9.732Z" style="fill:none;fill-rule:nonzero;stroke:rgb(187,189,192);stroke-width:0.2px;"/>
            </g>
        </g>
        <g transform="matrix(4.16667,0,0,4.16667,0,0)">
            <g transform="matrix(-0.0760812,0.997102,0.997102,0.0760812,145.249,70.218)">
                <path d="M14.129,-15.25C15.695,-15.248 16.963,-8.907 16.964,-1.081C16.964,6.746 15.693,13.088 14.129,13.088C12.565,13.09 11.297,6.744 11.297,-1.081C11.296,-8.906 12.564,-15.249 14.129,-15.25" style="fill:rgb(99,100,102);fill-rule:nonzero;"/>
            </g>
        </g>
        <g transform="matrix(4.16667,0,0,4.16667,0,0)">
            <g transform="matrix(-0.0760812,0.997102,0.997102,0.0760812,145.249,70.218)">
                <ellipse cx="14.13" cy="-1.08" rx="2.834" ry="14.17" style="fill:none;stroke:rgb(35,31,32);stroke-width:0.2px;"/>
            </g>
        </g>
        <g transform="matrix(4.16667,0,0,4.16667,0,0)">
            <g transform="matrix(35.553,0,0,-35.553,122.865,102.568)">
                <path d="M0.488,0.099C0.228,0.05 0.01,0.053 -0,0.105L0.06,-0.213C0.069,-0.265 0.288,-0.267 0.547,-0.219C0.807,-0.17 1.009,-0.088 1,-0.036L0.94,0.281C0.95,0.229 0.747,0.148 0.488,0.099Z" style="fill:url(#_Linear7);fill-rule:nonzero;"/>
            </g>
        </g>
        <g transform="matrix(4.16667,0,0,4.16667,0,0)">
            <g transform="matrix(1,0,0,1,156.284,112.075)">
                <path d="M0,-19.504C0.348,-17.658 -6.854,-14.756 -16.083,-13.024C-25.311,-11.291 -33.074,-11.383 -33.42,-13.228L-31.302,-1.938C-30.955,-0.091 -23.191,0 -13.963,-1.733C-4.732,-3.466 2.468,-6.367 2.121,-8.213L0,-19.504Z" style="fill:none;fill-rule:nonzero;stroke:rgb(0,74,128);stroke-width:0.2px;"/>
            </g>
        </g>
        <g transform="matrix(4.16667,0,0,4.16667,0,0)">
            <g transform="matrix(-0.360525,0.932749,0.932749,0.360525,156.585,57.9234)">
                <path d="M15.86,-23.13C17.737,-23.132 19.259,-15.517 19.261,-6.127C19.26,3.263 17.736,10.874 15.86,10.875C13.981,10.875 12.458,3.262 12.458,-6.127C12.458,-15.517 13.982,-23.13 15.86,-23.13" style="fill:rgb(35,31,32);fill-rule:nonzero;"/>
            </g>
        </g>
        <g transform="matrix(4.16667,0,0,4.16667,0,0)">
            <g transform="matrix(-0.360525,0.932749,0.932749,0.360525,156.585,57.9234)">
                <ellipse cx="15.859" cy="-6.128" rx="3.402" ry="17.004" style="fill:none;stroke:rgb(0,32,87);stroke-width:0.2px;"/>
            </g>
        </g>
        <g transform="matrix(4.16667,0,0,4.16667,0,0)">
            <g transform="matrix(18,-18,-18,-18,141.915,153.607)">
                <path d="M1.225,0.115C0.927,0.04 0.674,0.027 0.658,0.087L0.751,-0.278C0.766,-0.337 1.019,-0.325 1.317,-0.249C1.616,-0.174 1.845,-0.065 1.83,-0.005L1.738,0.359C1.753,0.3 1.523,0.191 1.225,0.115Z" style="fill:url(#_Linear8);fill-rule:nonzero;"/>
            </g>
        </g>
        <g transform="matrix(4.16667,0,0,4.16667,0,0)">
            <g transform="matrix(1,0,0,1,166.726,145.899)">
                <path d="M0,-30.042C1.346,-29.24 -0.818,-23.142 -4.828,-16.423C-8.838,-9.706 -13.18,-4.907 -14.523,-5.709L-6.301,-0.801C-4.957,0 -0.619,-4.798 3.394,-11.518C7.404,-18.236 9.564,-24.336 8.223,-25.134L0,-30.042Z" style="fill:none;fill-rule:nonzero;stroke:rgb(108,110,112);stroke-width:0.2px;"/>
            </g>
        </g>
        <g transform="matrix(4.16667,0,0,4.16667,0,0)">
            <g transform="matrix(14,18.6667,18.6667,-14,132.789,43.5116)">
                <path d="M0.744,-0.327C0.764,-0.391 1.04,-0.364 1.36,-0.266C1.681,-0.167 1.925,-0.036 1.905,0.028L1.785,0.421C1.805,0.356 1.561,0.225 1.24,0.127C0.919,0.029 0.644,0.001 0.624,0.066L0.744,-0.327Z" style="fill:url(#_Linear9);fill-rule:nonzero;"/>
            </g>
        </g>
        <g transform="matrix(4.16667,0,0,4.16667,0,0)">
            <g transform="matrix(1,0,0,1,165.635,63.2407)">
                <path d="M0,7.711C-0.923,8.978 -6.794,6.26 -13.114,1.648C-19.433,-2.971 -23.81,-7.732 -22.886,-8.997L-28.532,-1.267C-29.454,-0 -25.079,4.765 -18.759,9.38C-12.438,13.993 -6.567,16.708 -5.644,15.445L0,7.711Z" style="fill:none;fill-rule:nonzero;stroke:rgb(108,110,112);stroke-width:0.2px;"/>
            </g>
        </g>
        <g transform="matrix(4.16667,0,0,4.16667,0,0)">
            <g transform="matrix(-0.58964,0.807666,0.807666,0.58964,167.689,58.2837)">
                <path d="M11.442,-22.526C13.01,-22.525 14.274,-16.183 14.278,-8.357C14.277,-0.532 13.01,5.812 11.442,5.81C9.877,5.813 8.611,-0.531 8.608,-8.356C8.609,-16.181 9.877,-22.524 11.442,-22.526" style="fill:rgb(99,100,102);fill-rule:nonzero;"/>
            </g>
        </g>
        <g transform="matrix(4.16667,0,0,4.16667,0,0)">
            <g transform="matrix(-0.58964,0.807666,0.807666,0.58964,167.689,58.2837)">
                <ellipse cx="11.443" cy="-8.356" rx="2.835" ry="14.169" style="fill:none;stroke:rgb(35,31,32);stroke-width:0.2px;"/>
            </g>
        </g>
        <g transform="matrix(4.16667,0,0,4.16667,0,0)">
            <g transform="matrix(35.9092,0,0,-35.9092,125.102,77.2299)">
                <path d="M0.001,0.059C-0.017,0.011 0.165,-0.105 0.409,-0.2C0.653,-0.294 0.866,-0.331 0.885,-0.282L1,0.016C0.981,-0.032 0.768,0.005 0.524,0.099C0.28,0.193 0.098,0.309 0.117,0.358L0.001,0.059Z" style="fill:url(#_Linear10);fill-rule:nonzero;"/>
            </g>
        </g>
        <g transform="matrix(4.16667,0,0,4.16667,0,0)">
            <g transform="matrix(1,0,0,1,161.011,76.8442)">
                <path d="M0,-0.206C-0.678,1.543 -8.326,0.22 -17.085,-3.164C-25.843,-6.551 -32.396,-10.716 -31.719,-12.466L-35.861,-1.75C-36.537,0.002 -29.985,4.166 -21.227,7.551C-12.47,10.937 -4.818,12.26 -4.142,10.51L0,-0.206Z" style="fill:none;fill-rule:nonzero;stroke:rgb(0,74,128);stroke-width:0.2px;"/>
            </g>
        </g>
        <g transform="matrix(4.16667,0,0,4.16667,0,0)">
            <g transform="matrix(-0.797615,0.603167,0.603167,0.797615,179.519,56.6501)">
                <path d="M10.253,-30.562C12.132,-30.565 13.654,-22.954 13.654,-13.562C13.653,-4.171 12.131,3.442 10.253,3.442C8.375,3.441 6.852,-4.172 6.854,-13.563C6.852,-22.952 8.377,-30.564 10.253,-30.562" style="fill:rgb(35,31,32);fill-rule:nonzero;"/>
            </g>
        </g>
        <g transform="matrix(4.16667,0,0,4.16667,0,0)">
            <g transform="matrix(-0.797615,0.603167,0.603167,0.797615,179.519,56.6501)">
                <ellipse cx="10.253" cy="-13.562" rx="3.401" ry="17.003" style="fill:none;stroke:rgb(0,32,87);stroke-width:0.2px;stroke-miterlimit:4;"/>
            </g>
        </g>
        <g transform="matrix(4.16667,0,0,4.16667,0,0)">
            <g transform="matrix(12.6667,16,16,-12.6667,151.253,29.1851)">
                <path d="M0.726,0.022C0.705,-0.051 0.986,-0.198 1.354,-0.306C1.722,-0.413 2.038,-0.44 2.06,-0.367L2.191,0.084C2.17,0.01 1.854,0.037 1.486,0.145C1.117,0.252 0.836,0.399 0.858,0.473L0.726,0.022Z" style="fill:url(#_Linear11);fill-rule:nonzero;"/>
            </g>
        </g>
        <g transform="matrix(4.16667,0,0,4.16667,0,0)">
            <g transform="matrix(1,0,0,1,180.342,41.1157)">
                <path d="M0,22.064C-1.448,22.654 -5.011,17.253 -7.955,10.003C-10.897,2.753 -12.11,-3.601 -10.662,-4.189L-19.53,-0.589C-20.981,0.001 -19.769,6.355 -16.825,13.606C-13.882,20.854 -10.319,26.253 -8.87,25.669L0,22.064Z" style="fill:none;fill-rule:nonzero;stroke:rgb(108,110,112);stroke-width:0.2px;stroke-miterlimit:4;"/>
            </g>
        </g>
        <g transform="matrix(4.16667,0,0,4.16667,0,0)">
            <g transform="matrix(-0.926507,0.376278,0.376278,0.926507,184.891,60.2102)">
                <path d="M5.333,-27.297C6.896,-27.296 8.163,-20.952 8.165,-13.128C8.165,-5.304 6.897,1.042 5.333,1.039C3.769,1.042 2.499,-5.302 2.497,-13.129C2.498,-20.953 3.766,-27.296 5.333,-27.297" style="fill:rgb(99,100,102);fill-rule:nonzero;"/>
            </g>
        </g>
        <g transform="matrix(4.16667,0,0,4.16667,0,0)">
            <g transform="matrix(-0.926507,0.376278,0.376278,0.926507,184.891,60.2102)">
                <ellipse cx="5.331" cy="-13.127" rx="2.834" ry="14.169" style="fill:none;stroke:rgb(35,31,32);stroke-width:0.2px;"/>
            </g>
        </g>
        <g transform="matrix(4.16667,0,0,4.16667,0,0)">
            <g transform="matrix(30.03,0,0,-30.03,143.387,56.5398)">
                <path d="M0.012,0.371C-0.038,0.334 0.074,0.101 0.263,-0.149C0.452,-0.398 0.645,-0.57 0.695,-0.532L1,-0.301C0.95,-0.339 0.757,-0.167 0.568,0.082C0.38,0.332 0.267,0.564 0.317,0.602L0.012,0.371Z" style="fill:url(#_Linear12);fill-rule:nonzero;"/>
            </g>
        </g>
        <g transform="matrix(4.16667,0,0,4.16667,0,0)">
            <g transform="matrix(1,0,0,1,173.417,46.5206)">
                <path d="M0,19.059C-1.498,20.192 -7.303,15.038 -12.968,7.548C-18.633,0.057 -22.01,-6.932 -20.51,-8.063L-29.675,-1.135C-31.173,0 -27.795,6.988 -22.131,14.479C-16.467,21.968 -10.662,27.122 -9.162,25.988L0,19.059Z" style="fill:none;fill-rule:nonzero;stroke:rgb(0,74,128);stroke-width:0.2px;"/>
            </g>
        </g>
        <g transform="matrix(4.16667,0,0,4.16667,0,0)">
            <g transform="matrix(-0.995684,0.0928105,0.0928105,0.995684,191.348,62.4926)">
                <path d="M1.577,-33.935C3.456,-33.933 4.98,-26.322 4.977,-16.93C4.976,-7.542 3.455,0.071 1.577,0.069C-0.302,0.072 -1.825,-7.543 -1.823,-16.934C-1.822,-26.321 -0.298,-33.933 1.577,-33.935" style="fill:rgb(35,31,32);fill-rule:nonzero;"/>
            </g>
        </g>
        <g transform="matrix(4.16667,0,0,4.16667,0,0)">
            <g transform="matrix(-0.995684,0.0928105,0.0928105,0.995684,191.348,62.4926)">
                <ellipse cx="1.577" cy="-16.932" rx="3.403" ry="17.004" style="fill:none;stroke:rgb(0,32,87);stroke-width:0.2px;"/>
            </g>
        </g>
        <g transform="matrix(4.16667,0,0,4.16667,0,0)">
            <g transform="matrix(-4,16,16,4,199.373,24.8547)">
                <path d="M1.558,-0.379C2.031,-0.342 2.408,-0.237 2.401,-0.142L2.357,0.437C2.364,0.342 1.987,0.236 1.513,0.2C1.041,0.164 0.651,0.211 0.644,0.306L0.688,-0.273C0.688,-0.275 0.689,-0.277 0.689,-0.279C0.712,-0.369 1.095,-0.414 1.558,-0.379Z" style="fill:url(#_Linear13);fill-rule:nonzero;"/>
            </g>
        </g>
        <g transform="matrix(4.16667,0,0,4.16667,0,0)">
            <g transform="matrix(1,0,0,1,196.936,34.5099)">
                <path d="M0,29.807C-1.541,29.54 -1.727,23.076 -0.414,15.359C0.901,7.65 3.216,1.608 4.759,1.872L-4.679,0.264C-6.221,0 -8.535,6.042 -9.853,13.756C-11.165,21.47 -10.981,27.933 -9.437,28.199L0,29.807Z" style="fill:none;fill-rule:nonzero;stroke:rgb(108,110,112);stroke-width:0.2px;"/>
            </g>
        </g>
        <g transform="matrix(4.16667,0,0,4.16667,0,0)">
            <g transform="matrix(-0.985797,-0.16794,-0.16794,0.985797,194.628,63.7161)">
                <path d="M-2.377,-28.133C-0.811,-28.134 0.455,-21.789 0.458,-13.969C0.455,-6.141 -0.813,0.2 -2.377,0.204C-3.943,0.202 -5.212,-6.141 -5.209,-13.965C-5.211,-21.79 -3.941,-28.135 -2.377,-28.133" style="fill:rgb(99,100,102);fill-rule:nonzero;"/>
            </g>
        </g>
        <g transform="matrix(4.16667,0,0,4.16667,0,0)">
            <g transform="matrix(-0.985797,-0.16794,-0.16794,0.985797,194.628,63.7161)">
                <ellipse cx="-2.377" cy="-13.965" rx="2.835" ry="14.17" style="fill:none;stroke:rgb(35,31,32);stroke-width:0.2px;"/>
            </g>
        </g>
        <g transform="matrix(4.16667,0,0,4.16667,0,0)">
            <g transform="matrix(16.7539,0,0,-16.7539,173.032,46.4859)">
                <path d="M0.129,0.989C0.017,0.978 -0.031,0.518 0.021,-0.04C0.073,-0.598 0.206,-1.042 0.317,-1.032L1,-0.968C0.888,-0.979 0.756,-0.535 0.704,0.023C0.652,0.581 0.7,1.042 0.812,1.053L0.129,0.989Z" style="fill:url(#_Linear14);fill-rule:nonzero;"/>
            </g>
        </g>
        <g transform="matrix(4.16667,0,0,4.16667,0,0)">
            <g transform="matrix(1,0,0,1,189.785,30.0935)">
                <path d="M0,32.615C-1.87,32.791 -4.091,25.352 -4.963,16.004C-5.838,6.653 -5.027,-1.067 -3.156,-1.243L-14.597,-0.177C-16.466,0 -17.274,7.721 -16.403,17.069C-15.53,26.418 -13.307,33.858 -11.437,33.684L0,32.615Z" style="fill:none;fill-rule:nonzero;stroke:rgb(0,74,128);stroke-width:0.2px;"/>
            </g>
        </g>
        <g transform="matrix(4.16667,0,0,4.16667,0,0)">
            <g transform="matrix(-0.89539,-0.445283,-0.445283,0.89539,199.228,63.9236)">
                <path d="M-7.569,-32.226C-5.689,-32.226 -4.167,-24.613 -4.168,-15.223C-4.169,-5.835 -5.694,1.777 -7.569,1.777C-9.449,1.779 -10.97,-5.834 -10.969,-15.228C-10.968,-24.612 -9.445,-32.227 -7.569,-32.226" style="fill:rgb(35,31,32);fill-rule:nonzero;"/>
            </g>
        </g>
        <g transform="matrix(4.16667,0,0,4.16667,0,0)">
            <g transform="matrix(-0.89539,-0.445283,-0.445283,0.89539,199.228,63.9236)">
                <ellipse cx="-7.569" cy="-15.224" rx="3.401" ry="17.003" style="fill:none;stroke:rgb(0,32,87);stroke-width:0.2px;"/>
            </g>
        </g>
        <g transform="matrix(4.16667,0,0,4.16667,0,0)">
            <g transform="matrix(-14,11.3333,11.3333,14,236.537,42.5699)">
                <path d="M1.563,-0.364C1.992,-0.292 2.327,-0.164 2.313,-0.079L2.224,0.446C2.239,0.36 1.903,0.232 1.475,0.16C1.046,0.087 0.687,0.098 0.673,0.184L0.761,-0.34C0.763,-0.349 0.769,-0.358 0.778,-0.365C0.854,-0.427 1.181,-0.429 1.563,-0.364Z" style="fill:url(#_Linear15);fill-rule:nonzero;"/>
            </g>
        </g>
        <g transform="matrix(4.16667,0,0,4.16667,0,0)">
            <g transform="matrix(1,0,0,1,210.447,45.4016)">
                <path d="M0,28.616C-1.171,27.579 2.074,21.984 7.254,16.119C12.432,10.252 17.581,6.333 18.755,7.368L11.575,1.034C10.403,0 5.252,3.916 0.074,9.783C-5.104,15.65 -8.35,21.244 -7.179,22.28L0,28.616Z" style="fill:none;fill-rule:nonzero;stroke:rgb(108,110,112);stroke-width:0.2px;"/>
            </g>
        </g>
        <g transform="matrix(4.16667,0,0,4.16667,0,0)">
            <g transform="matrix(-0.749719,-0.661756,-0.661756,0.749719,205.764,65.1541)">
                <path d="M-9.376,-24.795C-7.811,-24.794 -6.544,-18.449 -6.545,-10.624C-6.542,-2.799 -7.812,3.544 -9.376,3.546C-10.943,3.545 -12.212,-2.797 -12.211,-10.623C-12.211,-18.448 -10.943,-24.792 -9.376,-24.795" style="fill:rgb(99,100,102);fill-rule:nonzero;"/>
            </g>
        </g>
        <g transform="matrix(4.16667,0,0,4.16667,0,0)">
            <g transform="matrix(-0.749719,-0.661756,-0.661756,0.749719,205.764,65.1541)">
                <ellipse cx="-9.377" cy="-10.625" rx="2.835" ry="14.171" style="fill:none;stroke:rgb(35,31,32);stroke-width:0.2px;"/>
            </g>
        </g>
        <g transform="matrix(4.16667,0,0,4.16667,0,0)">
            <g transform="matrix(26.019,0,0,-26.019,194.337,51.0672)">
                <path d="M0.197,0.155C0.036,-0.168 -0.042,-0.456 0.023,-0.488L0.418,-0.685C0.354,-0.653 0.431,-0.365 0.592,-0.042C0.753,0.282 0.935,0.518 1,0.485L0.605,0.682C0.601,0.684 0.596,0.685 0.591,0.685C0.518,0.685 0.347,0.458 0.197,0.155Z" style="fill:url(#_Linear16);fill-rule:nonzero;"/>
            </g>
        </g>
        <g transform="matrix(4.16667,0,0,4.16667,0,0)">
            <g transform="matrix(1,0,0,1,205.215,32.4883)">
                <path d="M0,36.397C-1.68,35.562 0.345,28.066 4.524,19.661C8.705,11.253 13.458,5.113 15.141,5.951L4.854,0.837C3.169,0 -1.582,6.136 -5.763,14.547C-9.943,22.955 -11.967,30.449 -10.288,31.284L0,36.397Z" style="fill:none;fill-rule:nonzero;stroke:rgb(0,74,128);stroke-width:0.2px;"/>
            </g>
        </g>
        <g transform="matrix(4.16667,0,0,4.16667,0,0)">
            <g transform="matrix(-0.526845,-0.849962,-0.849962,0.526845,214.301,65.739)">
                <path d="M-14.454,-25.963C-12.576,-25.961 -11.053,-18.347 -11.054,-8.961C-11.055,0.431 -12.577,8.044 -14.454,8.043C-16.333,8.042 -17.854,0.433 -17.855,-8.959C-17.852,-18.347 -16.328,-25.963 -14.454,-25.963" style="fill:rgb(35,31,32);fill-rule:nonzero;"/>
            </g>
        </g>
        <g transform="matrix(4.16667,0,0,4.16667,0,0)">
            <g transform="matrix(-0.526845,-0.849962,-0.849962,0.526845,214.301,65.739)">
                <ellipse cx="-14.454" cy="-8.959" rx="3.401" ry="17.004" style="fill:none;stroke:rgb(0,32,87);stroke-width:0.2px;stroke-miterlimit:4;"/>
            </g>
        </g>
        <g transform="matrix(4.16667,0,0,4.16667,0,0)">
            <g transform="matrix(-21.3333,13.3333,13.3333,21.3333,257.173,61.848)">
                <path d="M1.267,-0.25C1.567,-0.332 1.824,-0.349 1.84,-0.289L1.94,0.078C1.924,0.018 1.667,0.035 1.367,0.117C1.067,0.199 0.837,0.314 0.853,0.373L0.753,0.006C0.747,-0.016 0.775,-0.045 0.827,-0.078C0.916,-0.134 1.078,-0.199 1.267,-0.25Z" style="fill:url(#_Linear17);fill-rule:nonzero;"/>
            </g>
        </g>
        <g transform="matrix(4.16667,0,0,4.16667,0,0)">
            <g transform="matrix(1,0,0,1,216.827,70.5284)">
                <path d="M0,18.851C-0.453,17.353 5.255,14.303 12.746,12.045C20.237,9.783 26.677,9.165 27.126,10.661L24.361,1.496C23.91,0 17.47,0.618 9.979,2.88C2.485,5.141 -3.219,8.188 -2.767,9.686L0,18.851Z" style="fill:none;fill-rule:nonzero;stroke:rgb(108,110,112);stroke-width:0.2px;"/>
            </g>
        </g>
        <g transform="matrix(4.16667,0,0,4.16667,0,0)">
            <g transform="matrix(-0.289038,-0.957318,-0.957318,0.289038,222.552,73.4866)">
                <path d="M-13.56,-18.261C-11.998,-18.264 -10.728,-11.92 -10.729,-4.095C-10.725,3.729 -11.995,10.075 -13.56,10.074C-15.124,10.073 -16.393,3.728 -16.396,-4.096C-16.396,-11.92 -15.127,-18.266 -13.56,-18.261" style="fill:rgb(99,100,102);fill-rule:nonzero;"/>
            </g>
        </g>
        <g transform="matrix(4.16667,0,0,4.16667,0,0)">
            <g transform="matrix(-0.289038,-0.957318,-0.957318,0.289038,222.552,73.4866)">
                <ellipse cx="-13.561" cy="-4.095" rx="2.836" ry="14.17" style="fill:none;stroke:rgb(35,31,32);stroke-width:0.2px;"/>
            </g>
        </g>
        <g transform="matrix(4.16667,0,0,4.16667,0,0)">
            <g transform="matrix(35.0703,0,0,-35.0703,208.913,68.1928)">
                <path d="M0.364,0.215C0.137,0.074 -0.025,-0.077 0.003,-0.123L0.176,-0.401C0.148,-0.356 0.309,-0.204 0.537,-0.063C0.764,0.078 0.972,0.155 1,0.11L0.827,0.388C0.822,0.397 0.81,0.401 0.792,0.401C0.718,0.401 0.548,0.329 0.364,0.215Z" style="fill:url(#_Linear18);fill-rule:nonzero;"/>
            </g>
        </g>
        <g transform="matrix(4.16667,0,0,4.16667,0,0)">
            <g transform="matrix(1,0,0,1,215.079,52.9837)">
                <path d="M0,29.278C-0.989,27.683 4.68,22.379 12.662,17.43C20.64,12.484 27.913,9.767 28.904,11.362L22.849,1.596C21.859,0 14.588,2.717 6.605,7.666C-1.374,12.613 -7.044,17.92 -6.054,19.513L0,29.278Z" style="fill:none;fill-rule:nonzero;stroke:rgb(0,74,128);stroke-width:0.2px;stroke-miterlimit:4;"/>
            </g>
        </g>
        <g transform="matrix(4.16667,0,0,4.16667,0,0)">
            <g transform="matrix(-0.000617538,-1,-1,0.000617538,233.405,81.8152)">
                <path d="M-17.002,-17.015C-15.125,-17.015 -13.604,-9.402 -13.603,-0.013C-13.602,9.379 -15.125,16.99 -17.002,16.991C-18.88,16.99 -20.402,9.38 -20.403,-0.011C-20.406,-9.401 -18.882,-17.014 -17.002,-17.015" style="fill:rgb(35,31,32);fill-rule:nonzero;"/>
            </g>
        </g>
        <g transform="matrix(4.16667,0,0,4.16667,0,0)">
            <g transform="matrix(-0.000617538,-1,-1,0.000617538,233.405,81.8152)">
                <ellipse cx="-17.004" cy="-0.012" rx="3.402" ry="17.003" style="fill:none;stroke:rgb(0,32,87);stroke-width:0.2px;"/>
            </g>
        </g>
        <g transform="matrix(4.16667,0,0,4.16667,0,0)">
            <g transform="matrix(-25.3333,-4.66667,-4.66667,25.3333,263.645,110.069)">
                <path d="M1.89,-0.185L1.919,0.185C1.914,0.124 1.665,0.095 1.362,0.119C1.059,0.143 0.818,0.211 0.823,0.272L0.793,-0.099C0.788,-0.159 1.03,-0.228 1.333,-0.252C1.512,-0.266 1.673,-0.261 1.776,-0.243C1.845,-0.23 1.888,-0.21 1.89,-0.185Z" style="fill:url(#_Linear19);fill-rule:nonzero;"/>
            </g>
        </g>
        <g transform="matrix(4.16667,0,0,4.16667,0,0)">
            <g transform="matrix(1,0,0,1,214.161,102.36)">
                <path d="M0,3.436C0.407,1.925 6.861,2.339 14.421,4.36C21.981,6.38 27.782,9.246 27.378,10.759L29.852,1.507C30.256,-0.003 24.454,-2.868 16.895,-4.889C9.336,-6.91 2.88,-7.323 2.475,-5.81L0,3.436Z" style="fill:none;fill-rule:nonzero;stroke:rgb(108,110,112);stroke-width:0.2px;"/>
            </g>
        </g>
        <g transform="matrix(4.16667,0,0,4.16667,0,0)">
            <g transform="matrix(0.258394,-0.96604,-0.96604,-0.258394,234.924,97.1813)">
                <path d="M-13.687,-10.509C-12.121,-10.508 -10.852,-4.165 -10.854,3.662C-10.856,11.487 -12.123,17.829 -13.687,17.832C-15.254,17.829 -16.52,11.486 -16.523,3.661C-16.52,-4.165 -15.253,-10.507 -13.687,-10.509" style="fill:rgb(99,100,102);fill-rule:nonzero;"/>
            </g>
        </g>
        <g transform="matrix(4.16667,0,0,4.16667,0,0)">
            <g transform="matrix(0.258394,-0.96604,-0.96604,-0.258394,234.924,97.1813)">
                <ellipse cx="-13.688" cy="3.662" rx="2.835" ry="14.17" style="fill:none;stroke:rgb(35,31,32);stroke-width:0.2px;"/>
            </g>
        </g>
        <g transform="matrix(4.16667,0,0,4.16667,0,0)">
            <g transform="matrix(34.0118,0,0,-34.0118,216.419,91.3787)">
                <path d="M0.5,0.219C0.224,0.219 -0,0.174 -0,0.119L0,-0.219C0,-0.164 0.224,-0.119 0.5,-0.119C0.776,-0.119 1,-0.163 1,-0.218L1,0.119C1,0.174 0.776,0.219 0.501,0.219L0.5,0.219Z" style="fill:url(#_Linear20);fill-rule:nonzero;"/>
            </g>
        </g>
        <g transform="matrix(4.16667,0,0,4.16667,0,0)">
            <g transform="matrix(1,0,0,1,216.425,83.9261)">
                <path d="M0,14.901C0,13.024 7.609,11.497 17.002,11.492C26.391,11.487 34.005,13.004 34.006,14.88L34,3.397C33.998,1.518 26.383,0 16.994,0.004C7.604,0.007 -0.006,1.536 -0.006,3.413L0,14.901Z" style="fill:none;fill-rule:nonzero;stroke:rgb(0,74,128);stroke-width:0.2px;stroke-miterlimit:4;"/>
            </g>
        </g>
        <g transform="matrix(4.16667,0,0,4.16667,0,0)">
            <g transform="matrix(0.526039,-0.850461,-0.850461,-0.526039,238.52,114.97)">
                <path d="M-14.461,-8.058C-12.583,-8.058 -11.061,-0.445 -11.06,8.942C-11.058,18.334 -12.582,25.946 -14.461,25.947C-16.337,25.948 -17.861,18.335 -17.861,8.945C-17.863,-0.446 -16.337,-8.057 -14.461,-8.058" style="fill:rgb(35,31,32);fill-rule:nonzero;"/>
            </g>
        </g>
        <g transform="matrix(4.16667,0,0,4.16667,0,0)">
            <g transform="matrix(0.526039,-0.850461,-0.850461,-0.526039,238.52,114.97)">
                <ellipse cx="-14.46" cy="8.945" rx="3.402" ry="17.003" style="fill:none;stroke:rgb(0,32,87);stroke-width:0.2px;"/>
            </g>
        </g>
        <g transform="matrix(4.16667,0,0,4.16667,0,0)">
            <g transform="matrix(-16,-16,-16,16,239.453,146.423)">
                <path d="M1.996,-0.169L2.008,0.254C2.006,0.185 1.724,0.137 1.379,0.148C1.033,0.158 0.754,0.223 0.757,0.292L0.744,-0.131C0.742,-0.2 1.02,-0.265 1.366,-0.275C1.672,-0.284 1.928,-0.248 1.984,-0.192C1.991,-0.185 1.995,-0.177 1.996,-0.169Z" style="fill:url(#_Linear21);fill-rule:nonzero;"/>
            </g>
        </g>
        <g transform="matrix(4.16667,0,0,4.16667,0,0)">
            <g transform="matrix(1,0,0,1,203.254,131.355)">
                <path d="M0,-13C1.143,-14.074 6.412,-10.322 11.775,-4.622C17.139,1.075 20.562,6.562 19.422,7.636L26.394,1.075C27.531,-0 24.11,-5.487 18.746,-11.188C13.385,-16.883 8.113,-20.636 6.972,-19.562L0,-13Z" style="fill:none;fill-rule:nonzero;stroke:rgb(108,110,112);stroke-width:0.2px;"/>
            </g>
        </g>
        <g transform="matrix(4.16667,0,0,4.16667,0,0)">
            <g transform="matrix(0.728202,-0.685362,-0.685362,-0.728202,227.108,129.531)">
                <path d="M-9.711,-3.851C-8.144,-3.851 -6.877,2.492 -6.878,10.316C-6.877,18.143 -8.143,24.486 -9.711,24.488C-11.277,24.488 -12.541,18.145 -12.544,10.32C-12.546,2.493 -11.276,-3.851 -9.711,-3.851" style="fill:rgb(99,100,102);fill-rule:nonzero;"/>
            </g>
        </g>
        <g transform="matrix(4.16667,0,0,4.16667,0,0)">
            <g transform="matrix(0.728202,-0.685362,-0.685362,-0.728202,227.108,129.531)">
                <ellipse cx="-9.711" cy="10.318" rx="2.834" ry="14.17" style="fill:none;stroke:rgb(35,31,32);stroke-width:0.2px;"/>
            </g>
        </g>
        <g transform="matrix(4.16667,0,0,4.16667,0,0)">
            <g transform="matrix(1,0,0,1,208.847,120.14)">
                <path d="M0,-6.521C0.989,-8.118 8.265,-5.41 16.251,-0.468C24.234,4.471 29.908,9.77 28.92,11.367L34.965,1.597C35.952,-0.002 30.277,-5.302 22.292,-10.241C14.306,-15.18 7.03,-17.888 6.045,-16.293L0,-6.521Z" style="fill:rgb(1,118,174);fill-rule:nonzero;stroke:rgb(0,74,128);stroke-width:0.2px;"/>
            </g>
        </g>
        <g transform="matrix(4.16667,0,0,4.16667,0,0)">
            <g transform="matrix(0.89495,-0.446166,-0.446166,-0.89495,214.406,146.965)">
                <path d="M-7.585,-1.786C-5.71,-1.789 -4.185,5.823 -4.185,15.212C-4.185,24.606 -5.706,32.219 -7.585,32.217C-9.462,32.217 -10.985,24.605 -10.987,15.216C-10.985,5.826 -9.468,-1.787 -7.585,-1.786" style="fill:rgb(35,31,32);fill-rule:nonzero;"/>
            </g>
        </g>
        <g transform="matrix(4.16667,0,0,4.16667,0,0)">
            <g transform="matrix(0.89495,-0.446166,-0.446166,-0.89495,214.406,146.965)">
                <ellipse cx="-7.586" cy="15.215" rx="3.401" ry="17.004" style="fill:none;stroke:rgb(0,32,87);stroke-width:0.2px;"/>
            </g>
        </g>
        <g transform="matrix(4.16667,0,0,4.16667,0,0)">
            <g transform="matrix(-6.84415,-21.9013,-21.9013,6.84415,200.853,167.209)">
                <path d="M2.032,-0.147L2.096,0.334C2.085,0.256 1.799,0.211 1.456,0.235C1.114,0.258 0.804,0.179 0.814,0.257L0.72,-0.089C0.71,-0.168 1.036,-0.268 1.379,-0.292C1.713,-0.315 2.007,-0.231 2.031,-0.153C2.031,-0.151 2.032,-0.15 2.032,-0.147Z" style="fill:url(#_Linear22);fill-rule:nonzero;"/>
            </g>
        </g>
        <g transform="matrix(4.16667,0,0,4.16667,0,0)">
            <g transform="matrix(1,0,0,1,179.185,148.921)">
                <path d="M0,-25.321C1.797,-25.633 4.734,-19.67 6.561,-12.002C8.388,-4.333 12.253,1.908 10.456,2.221L18.685,1.9C20.481,1.59 20.456,-6.241 18.631,-13.91C16.802,-21.577 12.787,-27.542 10.99,-27.229L0,-25.321Z" style="fill:none;fill-rule:nonzero;stroke:rgb(108,110,112);stroke-width:0.2px;"/>
            </g>
        </g>
        <g transform="matrix(4.16667,0,0,4.16667,0,0)">
            <g transform="matrix(0.988617,-0.150457,-0.150457,-0.988617,191.398,150.666)">
                <path d="M-2.113,-0.16C-0.931,-0.025 0.027,6.373 0.029,14.132C0.028,21.886 -0.931,28.063 -2.113,27.928C-3.293,27.794 -4.251,21.395 -4.249,13.639C-4.25,5.882 -3.294,-0.296 -2.113,-0.16" style="fill:rgb(99,100,102);fill-rule:nonzero;"/>
            </g>
        </g>
        <g transform="matrix(4.16667,0,0,4.16667,0,0)">
            <g transform="matrix(0.988617,-0.150457,-0.150457,-0.988617,191.398,150.666)">
                <path d="M-2.113,-0.16C-0.931,-0.025 0.027,6.373 0.029,14.132C0.028,21.886 -0.931,28.063 -2.113,27.928C-3.293,27.794 -4.251,21.395 -4.249,13.639C-4.25,5.882 -3.294,-0.296 -2.113,-0.16Z" style="fill:none;fill-rule:nonzero;stroke:rgb(35,31,32);stroke-width:0.2px;"/>
            </g>
        </g>
        <g transform="matrix(4.16667,0,0,4.16667,0,0)">
            <g transform="matrix(26.0406,0,0,-26.0406,193.243,134.132)">
                <path d="M0.395,0.681L-0,0.484C0.065,0.517 0.247,0.281 0.408,-0.042C0.569,-0.364 0.647,-0.652 0.583,-0.684L0.977,-0.487C1.042,-0.455 0.964,-0.168 0.803,0.155C0.652,0.458 0.482,0.684 0.408,0.684C0.403,0.684 0.399,0.683 0.395,0.681Z" style="fill:url(#_Linear23);fill-rule:nonzero;"/>
            </g>
        </g>
        <g transform="matrix(4.16667,0,0,4.16667,0,0)">
            <g transform="matrix(1,0,0,1,193.243,145.985)">
                <path d="M0,-24.468C1.681,-25.308 6.438,-19.174 10.63,-10.767C14.819,-2.364 16.851,5.129 15.171,5.963L25.45,0.841C27.132,0.002 25.099,-7.489 20.911,-15.893C16.721,-24.297 11.962,-30.431 10.283,-29.592L0,-24.468Z" style="fill:none;fill-rule:nonzero;stroke:rgb(0,74,128);stroke-width:0.2px;"/>
            </g>
        </g>
        <g transform="matrix(4.16667,0,0,4.16667,0,0)">
            <g transform="matrix(21.3685,0,0,-21.3685,163.537,138.36)">
                <path d="M0.37,0.053C0.25,-0.37 0.085,-0.693 -0,-0.669L0.517,-0.815C0.602,-0.839 0.768,-0.516 0.887,-0.093C1.007,0.329 1.036,0.691 0.951,0.716L0.434,0.862C0.519,0.838 0.49,0.476 0.37,0.053Z" style="fill:url(#_Linear24);fill-rule:nonzero;"/>
            </g>
        </g>
        <g transform="matrix(4.16667,0,0,4.16667,0,0)">
            <g transform="matrix(1,0,0,1,172.813,156.297)">
                <path d="M0,-36.36C1.807,-35.849 1.196,-28.11 -1.366,-19.074C-3.93,-10.041 -7.469,-3.132 -9.276,-3.644L1.775,-0.51C3.583,0 7.125,-6.907 9.688,-15.941C12.248,-24.974 12.861,-32.713 11.054,-33.227L0,-36.36Z" style="fill:none;fill-rule:nonzero;stroke:rgb(0,74,128);stroke-width:0.2px;stroke-miterlimit:4;"/>
            </g>
        </g>
        <g transform="matrix(4.16667,0,0,4.16667,0,0)">
            <g transform="matrix(-1.73498,-70.1878,-70.1878,1.73498,186.258,127.442)">
                <path d="M0.767,0.423C0.533,0.57 0.225,0.5 0.077,0.267C-0.07,0.033 -0,-0.276 0.233,-0.423C0.467,-0.57 0.776,-0.5 0.923,-0.267C0.973,-0.188 0.998,-0.1 1,-0.013C1.004,0.157 0.921,0.325 0.767,0.423Z" style="fill:url(#_Linear25);fill-rule:nonzero;"/>
            </g>
        </g>
        <g transform="matrix(4.16667,0,0,4.16667,0,0)">
            <g transform="matrix(-1.77735,-71.9018,-71.9018,1.77735,186.27,128.3)">
                <path d="M0.988,-0.009C0.991,0.156 0.91,0.318 0.76,0.413C0.684,0.461 0.599,0.485 0.515,0.488L0.51,0.488C0.345,0.491 0.182,0.41 0.087,0.26C0.039,0.184 0.015,0.099 0.012,0.015L0.012,0.01C0.009,-0.155 0.09,-0.318 0.24,-0.413C0.316,-0.461 0.401,-0.485 0.485,-0.488L0.49,-0.488C0.655,-0.491 0.818,-0.41 0.913,-0.261C0.961,-0.184 0.985,-0.1 0.988,-0.016L0.988,-0.009Z" style="fill:url(#_Linear26);fill-rule:nonzero;"/>
            </g>
        </g>
        <g transform="matrix(4.16667,0,0,4.16667,0,0)">
            <g transform="matrix(-3.55271e-15,68.2927,68.2927,3.55271e-15,185.391,58.0645)">
                <ellipse cx="0.5" cy="0" rx="0.5" ry="0.5" style="fill:url(#_Linear27);"/>
            </g>
        </g>
        <g transform="matrix(4.16667,0,0,4.16667,0,0)">
            <g transform="matrix(-7.77156e-15,66.8985,66.8985,7.77156e-15,185.39,58.7595)">
                <ellipse cx="0.5" cy="-0" rx="0.5" ry="0.5" style="fill:url(#_Linear28);"/>
            </g>
        </g>
        <g transform="matrix(4.16667,0,0,4.16667,0,0)">
            <g transform="matrix(8.88178e-16,65.5044,65.5044,-8.88178e-16,185.39,59.4588)">
                <ellipse cx="0.5" cy="-0" rx="0.5" ry="0.5" style="fill:url(#_Linear29);"/>
            </g>
        </g>
        <g transform="matrix(4.16667,0,0,4.16667,0,0)">
            <g transform="matrix(-6.21725e-15,64.1115,64.1115,6.21725e-15,185.391,60.1543)">
                <ellipse cx="0.5" cy="-0" rx="0.5" ry="0.5" style="fill:url(#_Linear30);"/>
            </g>
        </g>
        <g transform="matrix(4.16667,0,0,4.16667,0,0)">
            <g transform="matrix(6.88338e-15,62.7172,62.7172,-6.88338e-15,185.392,60.8518)">
                <ellipse cx="0.5" cy="0" rx="0.5" ry="0.5" style="fill:url(#_Linear31);"/>
            </g>
        </g>
        <g transform="matrix(4.16667,0,0,4.16667,0,0)">
            <g transform="matrix(1.55431e-15,61.3236,61.3236,-1.55431e-15,185.39,61.5489)">
                <circle cx="0.5" cy="0" r="0.5" style="fill:url(#_Linear32);"/>
            </g>
        </g>
        <g transform="matrix(4.16667,0,0,4.16667,0,0)">
            <g transform="matrix(5.55112e-15,59.929,59.929,-5.55112e-15,185.391,62.2456)">
                <ellipse cx="0.5" cy="-0" rx="0.5" ry="0.5" style="fill:url(#_Linear33);"/>
            </g>
        </g>
        <g transform="matrix(4.16667,0,0,4.16667,0,0)">
            <text x="179.425px" y="195.376px" style="font-family:'ArialMT', 'Arial', sans-serif;font-size:44.891px;fill:rgb(35,31,32);">2</text>
        </g>
        <g transform="matrix(4.16667,0,0,4.16667,0,0)">
            <text x="179.425px" y="231.379px" style="font-family:'ArialMT', 'Arial', sans-serif;font-size:44.891px;fill:rgb(35,31,32);">0</text>
        </g>
        <g transform="matrix(4.16667,0,0,4.16667,0,0)">
            <text x="179.425px" y="267.381px" style="font-family:'ArialMT', 'Arial', sans-serif;font-size:44.891px;fill:rgb(35,31,32);">2</text>
        </g>
        <g transform="matrix(4.16667,0,0,4.16667,0,0)">
            <text x="179.425px" y="303.384px" style="font-family:'ArialMT', 'Arial', sans-serif;font-size:44.891px;fill:rgb(35,31,32);">4</text>
        </g>
        <g transform="matrix(4.16667,0,0,4.16667,0,0)">
            <text x="177.425px" y="194.376px" style="font-family:'ArialMT', 'Arial', sans-serif;font-size:44.891px;fill:white;">2</text>
        </g>
        <g transform="matrix(4.16667,0,0,4.16667,0,0)">
            <text x="177.425px" y="230.379px" style="font-family:'ArialMT', 'Arial', sans-serif;font-size:44.891px;fill:white;">0</text>
        </g>
        <g transform="matrix(4.16667,0,0,4.16667,0,0)">
            <text x="177.425px" y="266.381px" style="font-family:'ArialMT', 'Arial', sans-serif;font-size:44.891px;fill:white;">2</text>
        </g>
        <g transform="matrix(4.16667,0,0,4.16667,0,0)">
            <text x="177.425px" y="302.384px" style="font-family:'ArialMT', 'Arial', sans-serif;font-size:44.891px;fill:white;">4</text>
        </g>
        <g transform="matrix(4.16667,0,0,4.16667,0,0)">
            <text x="162.062px" y="100.787px" style="font-family:'ArialMT', 'Arial', sans-serif;font-size:40px;fill:rgb(35,31,32);">B</text>
            <text x="181.628px" y="100.787px" style="font-family:'ArialMT', 'Arial', sans-serif;font-size:31px;fill:rgb(35,31,32);">e<tspan x="193.356px 203.343px " y="100.787px 100.787px ">st</tspan></text>
        </g>
        <g transform="matrix(4.16667,0,0,4.16667,0,0)">
            <text x="160.062px" y="100.787px" style="font-family:'ArialMT', 'Arial', sans-serif;font-size:40px;fill:white;">B</text>
            <text x="179.628px" y="100.787px" style="font-family:'ArialMT', 'Arial', sans-serif;font-size:31px;fill:white;">e<tspan x="191.356px 201.343px " y="100.787px 100.787px ">st</tspan></text>
        </g>
        <g transform="matrix(4.16667,0,0,4.16667,0,0)">
            <text x="181.194px" y="117.168px" style="font-family:'ArialMT', 'Arial', sans-serif;font-size:15px;fill:rgb(35,31,32);">o<tspan x="189.159px " y="117.168px ">f</tspan></text>
        </g>
        <g transform="matrix(4.16667,0,0,4.16667,0,0)">
            <text x="180.189px" y="117.168px" style="font-family:'ArialMT', 'Arial', sans-serif;font-size:15px;fill:white;">o<tspan x="188.154px " y="117.168px ">f</tspan></text>
        </g>
        <g transform="matrix(4.16667,0,0,4.16667,0,0)">
            <g transform="matrix(0.37816,-0.92574,0.92574,0.37816,0,0)">
                <text x="-215.72px" y="231.171px" style="font-family:'Arial-BoldItalicMT', 'Arial', sans-serif;font-weight:700;font-style:italic;font-size:15px;fill:white;">Met<tspan x="-190.021px " y="231.171px ">r</tspan>op<tspan x="-165.992px " y="231.171px ">o</tspan>li<tspan x="-148.628px " y="231.171px ">t</tspan>an</text>
            </g>
        </g>
        <g transform="matrix(4.16667,0,0,4.16667,0,0)">
            <g transform="matrix(0.417493,0.90868,-0.90868,0.417493,0,0)">
                <text x="286.579px" y="-106.813px" style="font-family:'Arial-BoldItalicMT', 'Arial', sans-serif;font-weight:700;font-style:italic;font-size:15px;fill:white;">M<tspan x="298.942px 307.152px 316.182px 324.392px 331.759px 335.794px 344.824px " y="-106.813px -106.813px -106.813px -106.813px -106.813px -106.813px -106.813px ">agazine</tspan></text>
            </g>
        </g>
        <g transform="matrix(4.16667,0,0,4.16667,0,0)">
            <g transform="matrix(1,0,0,1,197.172,113.129)">
                <path d="M0,0L9.523,0" style="fill:none;fill-rule:nonzero;stroke:rgb(35,31,32);stroke-width:1px;stroke-linejoin:miter;"/>
            </g>
        </g>
        <g transform="matrix(4.16667,0,0,4.16667,0,0)">
            <g transform="matrix(1,0,0,1,197.172,112.282)">
                <path d="M0,0L9.523,0" style="fill:none;fill-rule:nonzero;stroke:white;stroke-width:1px;stroke-linejoin:miter;"/>
            </g>
        </g>
        <g transform="matrix(4.16667,0,0,4.16667,0,0)">
            <g transform="matrix(1,0,0,1,166.479,113.156)">
                <path d="M0,0L9.523,0" style="fill:none;fill-rule:nonzero;stroke:rgb(35,31,32);stroke-width:1px;stroke-linejoin:miter;"/>
            </g>
        </g>
        <g transform="matrix(4.16667,0,0,4.16667,0,0)">
            <g transform="matrix(1,0,0,1,166.479,112.308)">
                <path d="M0,0L9.523,0" style="fill:none;fill-rule:nonzero;stroke:white;stroke-width:1px;stroke-linejoin:miter;"/>
            </g>
        </g>
    </g>
    <defs>
        <linearGradient id="_Linear1" x1="0" y1="0" x2="1" y2="0" gradientUnits="userSpaceOnUse" gradientTransform="matrix(0.226816,-0.973938,-0.973938,-0.226816,0.573191,0.722017)"><stop offset="0" style="stop-color:rgb(123,211,247);stop-opacity:1"/><stop offset="0.01" style="stop-color:rgb(123,211,247);stop-opacity:1"/><stop offset="1" style="stop-color:rgb(0,88,150);stop-opacity:1"/></linearGradient>
        <linearGradient id="_Linear2" x1="0" y1="0" x2="1" y2="0" gradientUnits="userSpaceOnUse" gradientTransform="matrix(1,-5.55112e-17,-5.55112e-17,-1,0,0.0232359)"><stop offset="0" style="stop-color:rgb(35,31,32);stop-opacity:1"/><stop offset="1" style="stop-color:white;stop-opacity:1"/></linearGradient>
        <linearGradient id="_Linear3" x1="0" y1="0" x2="1" y2="0" gradientUnits="userSpaceOnUse" gradientTransform="matrix(0.226816,-0.973938,-0.973938,-0.226816,0.573189,0.722015)"><stop offset="0" style="stop-color:rgb(123,211,247);stop-opacity:1"/><stop offset="0.01" style="stop-color:rgb(123,211,247);stop-opacity:1"/><stop offset="1" style="stop-color:rgb(0,88,150);stop-opacity:1"/></linearGradient>
        <linearGradient id="_Linear4" x1="0" y1="0" x2="1" y2="0" gradientUnits="userSpaceOnUse" gradientTransform="matrix(1,0,0,-1,0,0.033625)"><stop offset="0" style="stop-color:rgb(123,211,247);stop-opacity:1"/><stop offset="0.01" style="stop-color:rgb(123,211,247);stop-opacity:1"/><stop offset="1" style="stop-color:rgb(0,113,188);stop-opacity:1"/></linearGradient>
        <linearGradient id="_Linear5" x1="0" y1="0" x2="1" y2="0" gradientUnits="userSpaceOnUse" gradientTransform="matrix(1,0,0,-1,0,-8.78598e-07)"><stop offset="0" style="stop-color:rgb(123,211,247);stop-opacity:1"/><stop offset="0.01" style="stop-color:rgb(123,211,247);stop-opacity:1"/><stop offset="1" style="stop-color:rgb(0,88,150);stop-opacity:1"/><stop offset="1" style="stop-color:rgb(0,88,150);stop-opacity:1"/></linearGradient>
        <linearGradient id="_Linear6" x1="0" y1="0" x2="1" y2="0" gradientUnits="userSpaceOnUse" gradientTransform="matrix(1,0,0,-1,0,0.00477701)"><stop offset="0" style="stop-color:rgb(35,31,32);stop-opacity:1"/><stop offset="1" style="stop-color:white;stop-opacity:1"/></linearGradient>
        <linearGradient id="_Linear7" x1="0" y1="0" x2="1" y2="0" gradientUnits="userSpaceOnUse" gradientTransform="matrix(1,0,0,-1,0,0.0137917)"><stop offset="0" style="stop-color:rgb(123,211,247);stop-opacity:1"/><stop offset="0.01" style="stop-color:rgb(123,211,247);stop-opacity:1"/><stop offset="1" style="stop-color:rgb(0,113,188);stop-opacity:1"/></linearGradient>
        <linearGradient id="_Linear8" x1="0" y1="0" x2="1" y2="0" gradientUnits="userSpaceOnUse" gradientTransform="matrix(1,0,0,-1,0,0.0220564)"><stop offset="0" style="stop-color:rgb(35,31,32);stop-opacity:1"/><stop offset="1" style="stop-color:white;stop-opacity:1"/></linearGradient>
        <linearGradient id="_Linear9" x1="0" y1="0" x2="1" y2="0" gradientUnits="userSpaceOnUse" gradientTransform="matrix(1,0,0,-1,0,0.0295123)"><stop offset="0" style="stop-color:rgb(35,31,32);stop-opacity:1"/><stop offset="1" style="stop-color:white;stop-opacity:1"/></linearGradient>
        <linearGradient id="_Linear10" x1="0" y1="0" x2="1" y2="0" gradientUnits="userSpaceOnUse" gradientTransform="matrix(1,0,0,-1,0,0.0272312)"><stop offset="0" style="stop-color:rgb(123,211,247);stop-opacity:1"/><stop offset="0.01" style="stop-color:rgb(123,211,247);stop-opacity:1"/><stop offset="1" style="stop-color:rgb(0,88,150);stop-opacity:1"/></linearGradient>
        <linearGradient id="_Linear11" x1="0" y1="0" x2="1" y2="0" gradientUnits="userSpaceOnUse" gradientTransform="matrix(1,-5.55112e-17,-5.55112e-17,-1,0,0.0322625)"><stop offset="0" style="stop-color:rgb(35,31,32);stop-opacity:1"/><stop offset="1" style="stop-color:white;stop-opacity:1"/></linearGradient>
        <linearGradient id="_Linear12" x1="0" y1="0" x2="1" y2="0" gradientUnits="userSpaceOnUse" gradientTransform="matrix(1,0,0,-1,0,0.0325841)"><stop offset="0" style="stop-color:rgb(123,211,247);stop-opacity:1"/><stop offset="0.01" style="stop-color:rgb(123,211,247);stop-opacity:1"/><stop offset="1" style="stop-color:rgb(0,113,188);stop-opacity:1"/></linearGradient>
        <linearGradient id="_Linear13" x1="0" y1="0" x2="1" y2="0" gradientUnits="userSpaceOnUse" gradientTransform="matrix(1,0,0,-1,0,0.0231978)"><stop offset="0" style="stop-color:rgb(35,31,32);stop-opacity:1"/><stop offset="1" style="stop-color:white;stop-opacity:1"/></linearGradient>
        <linearGradient id="_Linear14" x1="0" y1="0" x2="1" y2="0" gradientUnits="userSpaceOnUse" gradientTransform="matrix(1,0,0,-1,0,0.010199)"><stop offset="0" style="stop-color:rgb(123,211,247);stop-opacity:1"/><stop offset="0.01" style="stop-color:rgb(123,211,247);stop-opacity:1"/><stop offset="1" style="stop-color:rgb(0,113,188);stop-opacity:1"/></linearGradient>
        <linearGradient id="_Linear15" x1="0" y1="0" x2="1" y2="0" gradientUnits="userSpaceOnUse" gradientTransform="matrix(1,-5.55112e-17,-5.55112e-17,-1,0,0.0166825)"><stop offset="0" style="stop-color:rgb(35,31,32);stop-opacity:1"/><stop offset="1" style="stop-color:white;stop-opacity:1"/></linearGradient>
        <linearGradient id="_Linear16" x1="0" y1="0" x2="1" y2="0" gradientUnits="userSpaceOnUse" gradientTransform="matrix(1,0,0,-1,0,1.27983e-05)"><stop offset="0" style="stop-color:rgb(123,211,247);stop-opacity:1"/><stop offset="0.01" style="stop-color:rgb(123,211,247);stop-opacity:1"/><stop offset="1" style="stop-color:rgb(0,113,188);stop-opacity:1"/></linearGradient>
        <linearGradient id="_Linear17" x1="0" y1="0" x2="1" y2="0" gradientUnits="userSpaceOnUse" gradientTransform="matrix(1,5.55112e-17,5.55112e-17,-1,0,0.0242817)"><stop offset="0" style="stop-color:rgb(35,31,32);stop-opacity:1"/><stop offset="1" style="stop-color:white;stop-opacity:1"/></linearGradient>
        <linearGradient id="_Linear18" x1="0" y1="0" x2="1" y2="0" gradientUnits="userSpaceOnUse" gradientTransform="matrix(1,0,0,-1,0,1.8865e-05)"><stop offset="0" style="stop-color:rgb(123,211,247);stop-opacity:1"/><stop offset="0.01" style="stop-color:rgb(123,211,247);stop-opacity:1"/><stop offset="1" style="stop-color:rgb(0,88,150);stop-opacity:1"/></linearGradient>
        <linearGradient id="_Linear19" x1="0" y1="0" x2="1" y2="0" gradientUnits="userSpaceOnUse" gradientTransform="matrix(1,2.77556e-17,2.77556e-17,-1,0,0.00590667)"><stop offset="0" style="stop-color:rgb(35,31,32);stop-opacity:1"/><stop offset="1" style="stop-color:white;stop-opacity:1"/></linearGradient>
        <linearGradient id="_Linear20" x1="0" y1="0" x2="1" y2="0" gradientUnits="userSpaceOnUse" gradientTransform="matrix(1,0,0,-1,0,1.37952e-05)"><stop offset="0" style="stop-color:rgb(123,211,247);stop-opacity:1"/><stop offset="0.01" style="stop-color:rgb(123,211,247);stop-opacity:1"/><stop offset="1" style="stop-color:rgb(0,113,188);stop-opacity:1"/></linearGradient>
        <linearGradient id="_Linear21" x1="0" y1="0" x2="1" y2="0" gradientUnits="userSpaceOnUse" gradientTransform="matrix(1,0,0,-1,0,0.00774919)"><stop offset="0" style="stop-color:rgb(35,31,32);stop-opacity:1"/><stop offset="1" style="stop-color:white;stop-opacity:1"/></linearGradient>
        <linearGradient id="_Linear22" x1="0" y1="0" x2="1" y2="0" gradientUnits="userSpaceOnUse" gradientTransform="matrix(1,-5.55112e-17,-5.55112e-17,-1,0,0.0191823)"><stop offset="0" style="stop-color:rgb(35,31,32);stop-opacity:1"/><stop offset="1" style="stop-color:white;stop-opacity:1"/></linearGradient>
        <linearGradient id="_Linear23" x1="0" y1="0" x2="1" y2="0" gradientUnits="userSpaceOnUse" gradientTransform="matrix(1,0,0,-1,0,-7.31933e-06)"><stop offset="0" style="stop-color:rgb(123,211,247);stop-opacity:1"/><stop offset="0.01" style="stop-color:rgb(123,211,247);stop-opacity:1"/><stop offset="1" style="stop-color:rgb(0,113,188);stop-opacity:1"/></linearGradient>
        <linearGradient id="_Linear24" x1="0" y1="0" x2="1" y2="0" gradientUnits="userSpaceOnUse" gradientTransform="matrix(1,0,0,-1,0,0.0227013)"><stop offset="0" style="stop-color:rgb(123,211,247);stop-opacity:1"/><stop offset="0.01" style="stop-color:rgb(123,211,247);stop-opacity:1"/><stop offset="1" style="stop-color:rgb(0,113,188);stop-opacity:1"/></linearGradient>
        <linearGradient id="_Linear25" x1="0" y1="0" x2="1" y2="0" gradientUnits="userSpaceOnUse" gradientTransform="matrix(1,3.46945e-18,3.46945e-18,-1,0,-1.5255e-05)"><stop offset="0" style="stop-color:rgb(123,211,247);stop-opacity:1"/><stop offset="0.01" style="stop-color:rgb(123,211,247);stop-opacity:1"/><stop offset="0.8" style="stop-color:rgb(0,116,189);stop-opacity:1"/><stop offset="1" style="stop-color:rgb(0,113,188);stop-opacity:1"/></linearGradient>
        <linearGradient id="_Linear26" x1="0" y1="0" x2="1" y2="0" gradientUnits="userSpaceOnUse" gradientTransform="matrix(1,-3.46945e-18,-3.46945e-18,-1,0,-0.000134667)"><stop offset="0" style="stop-color:rgb(123,211,247);stop-opacity:1"/><stop offset="0.01" style="stop-color:rgb(123,211,247);stop-opacity:1"/><stop offset="0.8" style="stop-color:rgb(0,116,189);stop-opacity:1"/><stop offset="1" style="stop-color:rgb(0,113,188);stop-opacity:1"/></linearGradient>
        <linearGradient id="_Linear27" x1="0" y1="0" x2="1" y2="0" gradientUnits="userSpaceOnUse" gradientTransform="matrix(-0.999695,-0.0247116,-0.0247116,0.999695,0.99985,0.0123558)"><stop offset="0" style="stop-color:rgb(123,211,247);stop-opacity:1"/><stop offset="0.01" style="stop-color:rgb(123,211,247);stop-opacity:1"/><stop offset="0.8" style="stop-color:rgb(0,116,189);stop-opacity:1"/><stop offset="1" style="stop-color:rgb(0,113,188);stop-opacity:1"/></linearGradient>
        <linearGradient id="_Linear28" x1="0" y1="0" x2="1" y2="0" gradientUnits="userSpaceOnUse" gradientTransform="matrix(-0.999695,-0.0247116,-0.0247116,0.999695,0.999857,0.0123559)"><stop offset="0" style="stop-color:rgb(123,211,247);stop-opacity:1"/><stop offset="0.01" style="stop-color:rgb(123,211,247);stop-opacity:1"/><stop offset="0.8" style="stop-color:rgb(0,116,189);stop-opacity:1"/><stop offset="1" style="stop-color:rgb(0,113,188);stop-opacity:1"/></linearGradient>
        <linearGradient id="_Linear29" x1="0" y1="0" x2="1" y2="0" gradientUnits="userSpaceOnUse" gradientTransform="matrix(-0.999695,-0.0247116,-0.0247116,0.999695,0.999848,0.0123558)"><stop offset="0" style="stop-color:rgb(123,211,247);stop-opacity:1"/><stop offset="0.01" style="stop-color:rgb(123,211,247);stop-opacity:1"/><stop offset="0.8" style="stop-color:rgb(0,116,189);stop-opacity:1"/><stop offset="1" style="stop-color:rgb(0,113,188);stop-opacity:1"/></linearGradient>
        <linearGradient id="_Linear30" x1="0" y1="0" x2="1" y2="0" gradientUnits="userSpaceOnUse" gradientTransform="matrix(-0.999695,-0.0247116,-0.0247116,0.999695,0.999845,0.0123557)"><stop offset="0" style="stop-color:rgb(123,211,247);stop-opacity:1"/><stop offset="0.01" style="stop-color:rgb(123,211,247);stop-opacity:1"/><stop offset="0.8" style="stop-color:rgb(0,116,189);stop-opacity:1"/><stop offset="1" style="stop-color:rgb(0,113,188);stop-opacity:1"/></linearGradient>
        <linearGradient id="_Linear31" x1="0" y1="0" x2="1" y2="0" gradientUnits="userSpaceOnUse" gradientTransform="matrix(-0.999695,-0.0247116,-0.0247116,0.999695,0.999848,0.0123558)"><stop offset="0" style="stop-color:rgb(123,211,247);stop-opacity:1"/><stop offset="0.01" style="stop-color:rgb(123,211,247);stop-opacity:1"/><stop offset="0.8" style="stop-color:rgb(0,116,189);stop-opacity:1"/><stop offset="1" style="stop-color:rgb(0,113,188);stop-opacity:1"/></linearGradient>
        <linearGradient id="_Linear32" x1="0" y1="0" x2="1" y2="0" gradientUnits="userSpaceOnUse" gradientTransform="matrix(-0.999695,-0.0247116,-0.0247116,0.999695,0.999839,0.0123557)"><stop offset="0" style="stop-color:rgb(123,211,247);stop-opacity:1"/><stop offset="0.01" style="stop-color:rgb(123,211,247);stop-opacity:1"/><stop offset="0.8" style="stop-color:rgb(0,116,189);stop-opacity:1"/><stop offset="1" style="stop-color:rgb(0,113,188);stop-opacity:1"/></linearGradient>
        <linearGradient id="_Linear33" x1="0" y1="0" x2="1" y2="0" gradientUnits="userSpaceOnUse" gradientTransform="matrix(-0.999695,-0.0247116,-0.0247116,0.999695,0.999844,0.0123557)"><stop offset="0" style="stop-color:rgb(123,211,247);stop-opacity:1"/><stop offset="0.01" style="stop-color:rgb(123,211,247);stop-opacity:1"/><stop offset="0.8" style="stop-color:rgb(0,116,189);stop-opacity:1"/><stop offset="1" style="stop-color:rgb(0,113,188);stop-opacity:1"/></linearGradient>
    </defs>
</svg>
