<?xml version="1.0" encoding="UTF-8" standalone="no"?>
<!DOCTYPE svg PUBLIC "-//W3C//DTD SVG 1.1//EN" "http://www.w3.org/Graphics/SVG/1.1/DTD/svg11.dtd">
<svg width="100%" height="100%" viewBox="0 0 1104 2162" version="1.1" xmlns="http://www.w3.org/2000/svg" xmlns:xlink="http://www.w3.org/1999/xlink" xml:space="preserve" xmlns:serif="http://www.serif.com/" style="fill-rule:evenodd;clip-rule:evenodd;stroke-linejoin:round;stroke-miterlimit:10;">
    <g transform="matrix(1,0,0,1,-790.442,-203.625)">
        <g transform="matrix(4.16667,0,0,4.16667,1464.4,926.417)">
            <path d="M0,22.01L0,0.167L-0.017,0.136L-12.707,0" style="fill:rgb(0,84,143);fill-rule:nonzero;"/>
        </g>
        <g transform="matrix(-306.478,522.768,522.768,306.478,1869.7,1220.82)">
            <clipPath id="_clip1">
                <path d="M1.73,0.97L2.071,-0.497L-0.239,-1.035L-0.58,0.432L1.73,0.97Z" clip-rule="nonzero"/>
            </clipPath>
            <g clip-path="url(#_clip1)">
                <path d="M1.079,0.679L1.607,0.679L0.601,-0.633L-0.105,-0.763L1.079,0.679Z" style="fill:url(#_Linear2);fill-rule:nonzero;"/>
            </g>
        </g>
        <g transform="matrix(3.57788,2.13538,2.13538,-3.57788,1041.2,954.482)">
            <path d="M12.346,-3.404C15.004,-3.402 17.162,7.386 17.163,20.682C17.162,33.986 15.008,44.773 12.346,44.77C9.686,44.772 7.526,33.986 7.527,20.687C7.53,7.381 9.686,-3.406 12.346,-3.404" style="fill:rgb(99,100,102);fill-rule:nonzero;"/>
        </g>
        <g transform="matrix(3.57788,2.13538,2.13538,-3.57788,1041.2,954.482)">
            <ellipse cx="12.345" cy="20.684" rx="4.819" ry="24.089" style="fill:none;stroke:rgb(35,31,32);stroke-width:0.34px;"/>
        </g>
        <g transform="matrix(2.80988,3.07664,3.07664,-2.80988,929.102,839.607)">
            <path d="M21.344,-9.412C24.536,-9.411 27.126,3.528 27.125,19.49C27.125,35.455 24.542,48.397 21.344,48.396C18.153,48.398 15.564,35.455 15.564,19.491C15.562,3.531 18.148,-9.414 21.344,-9.412" style="fill:rgb(35,31,32);fill-rule:nonzero;"/>
        </g>
        <g transform="matrix(2.80988,3.07664,3.07664,-2.80988,929.102,839.607)">
            <ellipse cx="21.344" cy="19.492" rx="5.782" ry="28.906" style="fill:none;stroke:rgb(0,32,87);stroke-width:0.34px;"/>
        </g>
        <g transform="matrix(122.779,-37.7779,-37.7779,-122.779,859.164,862.573)">
            <clipPath id="_clip3">
                <path d="M0.539,0.865L2.507,0.865L2.507,-0.835L0.539,-0.835L0.539,0.865Z" clip-rule="nonzero"/>
            </clipPath>
            <g clip-path="url(#_clip3)">
                <path d="M1.496,0.163C1.071,0.086 0.715,0.092 0.699,0.177L0.794,-0.342C0.809,-0.427 1.166,-0.433 1.59,-0.356C2.015,-0.279 2.347,-0.148 2.331,-0.063L2.237,0.457C2.252,0.372 1.92,0.24 1.496,0.163Z" style="fill:url(#_Linear4);fill-rule:nonzero;"/>
            </g>
        </g>
        <g transform="matrix(4.16667,0,0,4.16667,1116.53,884.425)">
            <path d="M0,-38.981C1.224,-36.614 -7.357,-29.736 -19.167,-23.611C-30.979,-17.491 -41.542,-14.448 -42.765,-16.808L-35.278,-2.358C-34.056,0 -23.483,-3.043 -11.673,-9.164C0.133,-15.288 8.716,-22.166 7.491,-24.531L0,-38.981Z" style="fill:none;fill-rule:nonzero;stroke:rgb(108,110,112);stroke-width:0.34px;"/>
        </g>
        <g transform="matrix(1.91789,3.69903,3.69903,-1.91789,945.409,710.378)">
            <path d="M21.382,-12.997C24.039,-12.998 26.201,-2.217 26.204,11.084C26.203,24.387 24.046,35.172 21.382,35.175C18.722,35.175 16.568,24.391 16.566,11.087C16.562,-2.216 18.718,-13 21.382,-12.997" style="fill:rgb(99,100,102);fill-rule:nonzero;"/>
        </g>
        <g transform="matrix(1.91789,3.69903,3.69903,-1.91789,945.409,710.378)">
            <ellipse cx="21.383" cy="11.087" rx="4.821" ry="24.087" style="fill:none;stroke:rgb(35,31,32);stroke-width:0.34px;"/>
        </g>
        <g transform="matrix(306.478,522.768,-522.768,306.478,815.032,1220.17)">
            <clipPath id="_clip5">
                <path d="M1.73,0.97L2.071,-0.497L-0.239,-1.035L-0.58,0.432L1.73,0.97Z" clip-rule="nonzero"/>
            </clipPath>
            <g clip-path="url(#_clip5)">
                <path d="M1.079,0.679L1.607,0.679L0.601,-0.633L-0.105,-0.763L1.079,0.679Z" style="fill:url(#_Linear6);fill-rule:nonzero;"/>
            </g>
        </g>
        <g transform="matrix(234.221,0,0,-234.221,960.117,889.392)">
            <path d="M0.449,0.09C0.239,-0.101 0.038,-0.223 0,-0.181L0.234,-0.437C0.273,-0.479 0.474,-0.358 0.683,-0.166C0.893,0.025 1.032,0.214 0.994,0.256L0.759,0.513C0.798,0.471 0.659,0.282 0.449,0.09Z" style="fill:url(#_Linear7);fill-rule:nonzero;"/>
        </g>
        <g transform="matrix(4.16667,0,0,4.16667,1137.98,1001.62)">
            <path d="M0,-55.76C2.157,-53.4 -5.656,-42.763 -17.447,-31.997C-29.231,-21.233 -40.533,-14.421 -42.685,-16.775L-29.519,-2.354C-27.363,0 -16.062,-6.811 -4.277,-17.578C7.514,-28.34 15.326,-38.979 13.17,-41.338L0,-55.76Z" style="fill:none;fill-rule:nonzero;stroke:rgb(0,74,128);stroke-width:0.34px;"/>
        </g>
        <g transform="matrix(0.769009,4.09509,4.09509,-0.769009,944.961,565.711)">
            <path d="M28.407,-23.57C31.599,-23.57 34.188,-10.628 34.188,5.333C34.19,21.297 31.601,34.24 28.407,34.238C25.217,34.238 22.627,21.299 22.624,5.337C22.626,-10.628 25.213,-23.571 28.407,-23.57" style="fill:rgb(35,31,32);fill-rule:nonzero;"/>
        </g>
        <g transform="matrix(0.769009,4.09509,4.09509,-0.769009,944.961,565.711)">
            <ellipse cx="28.407" cy="5.335" rx="5.783" ry="28.906" style="fill:none;stroke:rgb(0,32,87);stroke-width:0.34px;"/>
        </g>
        <g transform="matrix(-37.9817,-1536.54,-1536.54,37.9817,1352.31,2326.95)">
            <clipPath id="_clip8">
                <path d="M-0.026,0.098L0.923,0.098L0.923,-0.098L-0.026,-0.098L-0.026,0.098Z" clip-rule="nonzero"/>
            </clipPath>
            <g clip-path="url(#_clip8)">
                <path d="M0.923,0.075L-0.022,0.098L0.039,0.005L-0.026,-0.075L0.912,-0.098L0.923,0.075Z" style="fill:url(#_Linear9);fill-rule:nonzero;"/>
            </g>
        </g>
        <g transform="matrix(4.00866,1.13657,1.13657,-4.00866,1128.03,1067.94)">
            <path d="M7.885,-1.096C11.08,-1.095 13.665,11.844 13.667,27.808C13.669,43.775 11.078,56.716 7.885,56.713C4.695,56.719 2.108,43.772 2.104,27.808C2.103,11.844 4.694,-1.095 7.885,-1.096" style="fill:rgb(35,31,32);fill-rule:nonzero;"/>
        </g>
        <g transform="matrix(4.00866,1.13657,1.13657,-4.00866,1128.03,1067.94)">
            <ellipse cx="7.886" cy="27.811" rx="5.783" ry="28.908" style="fill:none;stroke:rgb(0,32,87);stroke-width:0.34px;"/>
        </g>
        <g transform="matrix(318.396,34.8246,34.8246,-318.396,656.617,601.746)">
            <clipPath id="_clip10">
                <path d="M0.774,0.195L1.448,0.195L1.448,-0.184L0.774,-0.184L0.774,0.195Z" clip-rule="nonzero"/>
            </clipPath>
            <g clip-path="url(#_clip10)">
                <path d="M0.8,-0.085C0.801,-0.119 0.942,-0.143 1.115,-0.137C1.288,-0.131 1.427,-0.099 1.426,-0.064L1.419,0.147C1.42,0.113 1.281,0.08 1.108,0.075C0.935,0.069 0.794,0.092 0.793,0.127L0.8,-0.085Z" style="fill:url(#_Linear11);fill-rule:nonzero;"/>
            </g>
        </g>
        <g transform="matrix(4.16667,0,0,4.16667,1113.67,673.158)">
            <path d="M0,-16.544C-0.202,-13.894 -11.116,-12.559 -24.385,-13.571C-37.648,-14.586 -48.234,-17.556 -48.035,-20.209L-49.271,-3.981C-49.477,-1.328 -38.884,1.641 -25.622,2.657C-12.359,3.665 -1.438,2.338 -1.239,-0.316L0,-16.544Z" style="fill:none;fill-rule:nonzero;stroke:rgb(187,189,192);stroke-width:0.34px;"/>
        </g>
        <g transform="matrix(-0.316989,4.15459,4.15459,0.316989,1028.84,497.378)">
            <path d="M24.019,-25.925C26.681,-25.922 28.837,-15.142 28.84,-1.838C28.838,11.469 26.678,22.249 24.019,22.249C21.361,22.253 19.205,11.465 19.205,-1.837C19.204,-15.141 21.358,-25.924 24.019,-25.925" style="fill:rgb(99,100,102);fill-rule:nonzero;"/>
        </g>
        <g transform="matrix(-0.316989,4.15459,4.15459,0.316989,1028.84,497.378)">
            <ellipse cx="24.022" cy="-1.836" rx="4.818" ry="24.089" style="fill:none;stroke:rgb(35,31,32);stroke-width:0.34px;"/>
        </g>
        <g transform="matrix(251.833,0,0,-251.833,870.292,726.525)">
            <path d="M0.488,0.099C0.228,0.05 0.01,0.053 -0,0.105L0.06,-0.213C0.069,-0.265 0.288,-0.267 0.547,-0.219C0.807,-0.17 1.009,-0.088 1,-0.036L0.94,0.281C0.95,0.229 0.747,0.148 0.488,0.099Z" style="fill:url(#_Linear12);fill-rule:nonzero;"/>
        </g>
        <g transform="matrix(4.16667,0,0,4.16667,1107.02,793.862)">
            <path d="M0,-33.157C0.592,-30.018 -11.652,-25.085 -27.341,-22.141C-43.029,-19.195 -56.226,-19.351 -56.814,-22.487L-53.213,-3.294C-52.623,-0.155 -39.425,0 -23.737,-2.946C-8.044,-5.892 4.196,-10.824 3.606,-13.962L0,-33.157Z" style="fill:none;fill-rule:nonzero;stroke:rgb(0,74,128);stroke-width:0.34px;"/>
        </g>
        <g transform="matrix(-1.50217,3.88646,3.88646,1.50217,1109.15,410.289)">
            <path d="M26.963,-39.323C30.153,-39.325 32.741,-26.38 32.744,-10.417C32.743,5.546 30.152,18.484 26.963,18.488C23.768,18.487 21.18,5.544 21.18,-10.417C21.178,-26.38 23.769,-39.321 26.963,-39.323" style="fill:rgb(35,31,32);fill-rule:nonzero;"/>
        </g>
        <g transform="matrix(-1.50217,3.88646,3.88646,1.50217,1109.15,410.289)">
            <ellipse cx="26.961" cy="-10.419" rx="5.783" ry="28.906" style="fill:none;stroke:rgb(0,32,87);stroke-width:0.34px;"/>
        </g>
        <g transform="matrix(127.5,-127.5,-127.5,-127.5,1005.23,1088.06)">
            <clipPath id="_clip13">
                <path d="M0.5,0.763L2.003,0.763L2.003,-0.741L0.5,-0.741L0.5,0.763Z" clip-rule="nonzero"/>
            </clipPath>
            <g clip-path="url(#_clip13)">
                <path d="M1.225,0.115C0.927,0.04 0.674,0.027 0.658,0.087L0.751,-0.278C0.766,-0.337 1.019,-0.325 1.317,-0.249C1.616,-0.174 1.845,-0.065 1.83,-0.005L1.738,0.359C1.753,0.3 1.523,0.191 1.225,0.115Z" style="fill:url(#_Linear14);fill-rule:nonzero;"/>
            </g>
        </g>
        <g transform="matrix(4.16667,0,0,4.16667,1180.98,1033.46)">
            <path d="M0,-51.071C2.288,-49.708 -1.391,-39.341 -8.208,-27.919C-15.025,-16.5 -22.407,-8.342 -24.69,-9.705L-10.712,-1.362C-8.427,0 -1.053,-8.157 5.769,-19.581C12.586,-31.001 16.258,-41.371 13.979,-42.728L0,-51.071Z" style="fill:none;fill-rule:nonzero;stroke:rgb(108,110,112);stroke-width:0.34px;"/>
        </g>
        <g transform="matrix(99.1667,132.221,132.221,-99.1667,940.591,308.204)">
            <clipPath id="_clip15">
                <path d="M0.455,0.85L2.094,0.85L2.094,-0.821L0.455,-0.821L0.455,0.85Z" clip-rule="nonzero"/>
            </clipPath>
            <g clip-path="url(#_clip15)">
                <path d="M0.744,-0.327C0.764,-0.391 1.04,-0.364 1.36,-0.266C1.681,-0.167 1.925,-0.036 1.905,0.028L1.785,0.421C1.805,0.356 1.561,0.225 1.24,0.127C0.919,0.029 0.644,0.001 0.624,0.066L0.744,-0.327Z" style="fill:url(#_Linear16);fill-rule:nonzero;"/>
            </g>
        </g>
        <g transform="matrix(4.16667,0,0,4.16667,1173.25,447.954)">
            <path d="M0,13.109C-1.569,15.263 -11.55,10.642 -22.294,2.802C-33.036,-5.051 -40.477,-13.144 -38.906,-15.295L-48.504,-2.154C-50.072,-0 -42.634,8.101 -31.89,15.946C-21.144,23.788 -11.164,28.404 -9.595,26.257L0,13.109Z" style="fill:none;fill-rule:nonzero;stroke:rgb(108,110,112);stroke-width:0.34px;"/>
        </g>
        <g transform="matrix(-2.45686,3.36525,3.36525,2.45686,1187.8,412.844)">
            <path d="M19.452,-38.294C22.117,-38.293 24.266,-27.511 24.273,-14.207C24.271,-0.904 22.117,9.88 19.452,9.877C16.79,9.882 14.638,-0.902 14.634,-14.205C14.635,-27.507 16.791,-38.291 19.452,-38.294" style="fill:rgb(99,100,102);fill-rule:nonzero;"/>
        </g>
        <g transform="matrix(-2.45686,3.36525,3.36525,2.45686,1187.8,412.844)">
            <ellipse cx="19.454" cy="-14.206" rx="4.819" ry="24.088" style="fill:none;stroke:rgb(35,31,32);stroke-width:0.34px;"/>
        </g>
        <g transform="matrix(254.358,0,0,-254.358,886.137,547.046)">
            <path d="M0.001,0.059C-0.017,0.011 0.165,-0.105 0.409,-0.2C0.653,-0.294 0.866,-0.331 0.885,-0.282L1,0.016C0.981,-0.032 0.768,0.005 0.524,0.099C0.28,0.193 0.098,0.309 0.117,0.358L0.001,0.059Z" style="fill:url(#_Linear17);fill-rule:nonzero;"/>
        </g>
        <g transform="matrix(4.16667,0,0,4.16667,1140.5,544.312)">
            <path d="M0,-0.35C-1.152,2.623 -14.154,0.374 -29.044,-5.379C-43.933,-11.137 -55.073,-18.217 -53.922,-21.192L-60.964,-2.975C-62.113,0.004 -50.974,7.082 -36.086,12.837C-21.199,18.593 -8.19,20.842 -7.041,17.867L0,-0.35Z" style="fill:none;fill-rule:nonzero;stroke:rgb(0,74,128);stroke-width:0.34px;"/>
        </g>
        <g transform="matrix(-3.32339,2.51321,2.51321,3.32339,1271.6,401.27)">
            <path d="M17.431,-51.956C20.624,-51.961 23.212,-39.021 23.211,-23.055C23.21,-7.09 20.623,5.851 17.431,5.851C14.238,5.851 11.648,-7.092 11.652,-23.056C11.649,-39.018 14.242,-51.959 17.431,-51.956" style="fill:rgb(35,31,32);fill-rule:nonzero;"/>
        </g>
        <g transform="matrix(-3.32339,2.51321,2.51321,3.32339,1271.6,401.27)">
            <ellipse cx="17.43" cy="-23.055" rx="5.782" ry="28.906" style="fill:none;stroke:rgb(0,32,87);stroke-width:0.34px;stroke-miterlimit:4;"/>
        </g>
        <g transform="matrix(89.7208,113.333,113.333,-89.7208,1071.38,206.721)">
            <clipPath id="_clip18">
                <path d="M0.544,0.882L2.352,0.882L2.352,-0.85L0.544,-0.85L0.544,0.882Z" clip-rule="nonzero"/>
            </clipPath>
            <g clip-path="url(#_clip18)">
                <path d="M0.727,0.022C0.705,-0.051 0.986,-0.198 1.354,-0.306C1.722,-0.413 2.038,-0.44 2.06,-0.367L2.191,0.084C2.17,0.01 1.854,0.037 1.486,0.145C1.117,0.252 0.836,0.399 0.858,0.473L0.727,0.022Z" style="fill:url(#_Linear19);fill-rule:nonzero;"/>
            </g>
        </g>
        <g transform="matrix(4.16667,0,0,4.16667,1277.42,291.237)">
            <path d="M0,37.508C-2.462,38.511 -8.519,29.33 -13.523,17.005C-18.525,4.68 -20.587,-6.122 -18.125,-7.122L-33.201,-1.002C-35.668,0.001 -33.607,10.803 -28.602,23.13C-23.599,35.451 -17.542,44.63 -15.079,43.637L0,37.508Z" style="fill:none;fill-rule:nonzero;stroke:rgb(108,110,112);stroke-width:0.34px;stroke-miterlimit:4;"/>
        </g>
        <g transform="matrix(-3.86043,1.56787,1.56787,3.86043,1309.65,426.486)">
            <path d="M9.066,-46.404C11.723,-46.402 13.877,-35.618 13.882,-22.318C13.881,-9.017 11.726,1.771 9.066,1.767C6.408,1.771 4.25,-9.013 4.246,-22.32C4.247,-35.62 6.402,-46.403 9.066,-46.404" style="fill:rgb(99,100,102);fill-rule:nonzero;"/>
        </g>
        <g transform="matrix(-3.86043,1.56787,1.56787,3.86043,1309.65,426.486)">
            <ellipse cx="9.064" cy="-22.316" rx="4.818" ry="24.088" style="fill:none;stroke:rgb(35,31,32);stroke-width:0.34px;"/>
        </g>
        <g transform="matrix(212.713,0,0,-212.713,1015.66,400.492)">
            <path d="M0.012,0.371C-0.038,0.334 0.074,0.101 0.263,-0.149C0.452,-0.398 0.645,-0.57 0.695,-0.532L1,-0.301C0.95,-0.339 0.757,-0.167 0.568,0.082C0.38,0.332 0.267,0.564 0.317,0.602L0.012,0.371Z" style="fill:url(#_Linear20);fill-rule:nonzero;"/>
        </g>
        <g transform="matrix(4.16667,0,0,4.16667,1228.38,329.521)">
            <path d="M0,32.4C-2.547,34.326 -12.415,25.565 -22.046,12.832C-31.676,0.097 -37.417,-11.784 -34.867,-13.707L-50.448,-1.93C-52.994,0 -47.252,11.88 -37.623,24.614C-27.994,37.346 -18.125,46.107 -15.576,44.18L0,32.4Z" style="fill:none;fill-rule:nonzero;stroke:rgb(0,74,128);stroke-width:0.34px;"/>
        </g>
        <g transform="matrix(-4.14868,0.386693,0.386693,4.14868,1355.39,442.658)">
            <path d="M2.681,-57.691C5.876,-57.686 8.466,-44.749 8.461,-28.782C8.459,-12.821 5.874,0.12 2.681,0.118C-0.513,0.121 -3.103,-12.823 -3.098,-28.789C-3.097,-44.747 -0.506,-57.687 2.681,-57.691" style="fill:rgb(35,31,32);fill-rule:nonzero;"/>
        </g>
        <g transform="matrix(-4.14868,0.386693,0.386693,4.14868,1355.39,442.658)">
            <ellipse cx="2.682" cy="-28.785" rx="5.785" ry="28.906" style="fill:none;stroke:rgb(0,32,87);stroke-width:0.34px;"/>
        </g>
        <g transform="matrix(-28.3333,113.333,113.333,28.3333,1412.23,176.055)">
            <clipPath id="_clip21">
                <path d="M0.549,0.717L2.521,0.717L2.521,-0.654L0.549,-0.654L0.549,0.717Z" clip-rule="nonzero"/>
            </clipPath>
            <g clip-path="url(#_clip21)">
                <path d="M1.558,-0.379C2.031,-0.342 2.408,-0.237 2.401,-0.142L2.357,0.437C2.364,0.342 1.987,0.236 1.513,0.2C1.041,0.164 0.651,0.211 0.644,0.306L0.688,-0.273C0.688,-0.275 0.689,-0.277 0.689,-0.279C0.712,-0.369 1.095,-0.414 1.558,-0.379Z" style="fill:url(#_Linear22);fill-rule:nonzero;"/>
            </g>
        </g>
        <g transform="matrix(4.16667,0,0,4.16667,1394.97,244.446)">
            <path d="M0,50.672C-2.62,50.218 -2.936,39.229 -0.704,26.11C1.532,13.005 5.467,2.733 8.09,3.182L-7.954,0.449C-10.576,0 -14.509,10.271 -16.75,23.385C-18.98,36.499 -18.668,47.486 -16.043,47.938L0,50.672Z" style="fill:none;fill-rule:nonzero;stroke:rgb(108,110,112);stroke-width:0.34px;"/>
        </g>
        <g transform="matrix(-4.10749,-0.699718,-0.699718,4.10749,1378.62,451.321)">
            <path d="M-4.041,-47.826C-1.379,-47.828 0.774,-37.041 0.778,-23.747C0.773,-10.439 -1.382,0.341 -4.041,0.348C-6.702,0.345 -8.86,-10.439 -8.855,-23.741C-8.859,-37.043 -6.699,-47.828 -4.041,-47.826" style="fill:rgb(99,100,102);fill-rule:nonzero;"/>
        </g>
        <g transform="matrix(-4.10749,-0.699718,-0.699718,4.10749,1378.62,451.321)">
            <ellipse cx="-4.041" cy="-23.74" rx="4.819" ry="24.088" style="fill:none;stroke:rgb(35,31,32);stroke-width:0.34px;"/>
        </g>
        <g transform="matrix(118.675,0,0,-118.675,1225.65,329.275)">
            <path d="M0.129,0.989C0.017,0.978 -0.031,0.518 0.021,-0.04C0.073,-0.598 0.206,-1.042 0.317,-1.032L1,-0.968C0.888,-0.979 0.756,-0.535 0.704,0.023C0.651,0.581 0.7,1.042 0.812,1.053L0.129,0.989Z" style="fill:url(#_Linear23);fill-rule:nonzero;"/>
        </g>
        <g transform="matrix(4.16667,0,0,4.16667,1344.32,213.167)">
            <path d="M0,55.444C-3.179,55.744 -6.955,43.097 -8.437,27.206C-9.925,11.309 -8.546,-1.815 -5.365,-2.114L-24.815,-0.302C-27.992,-0.001 -29.366,13.125 -27.885,29.016C-26.401,44.91 -22.622,57.558 -19.443,57.262L0,55.444Z" style="fill:none;fill-rule:nonzero;stroke:rgb(0,74,128);stroke-width:0.34px;"/>
        </g>
        <g transform="matrix(-3.73081,-1.85531,-1.85531,3.73081,1411.2,452.794)">
            <path d="M-12.868,-54.785C-9.672,-54.785 -7.085,-41.842 -7.087,-25.88C-7.087,-9.92 -9.679,3.02 -12.868,3.02C-16.063,3.024 -18.649,-9.917 -18.647,-25.888C-18.646,-41.841 -16.057,-54.785 -12.868,-54.785" style="fill:rgb(35,31,32);fill-rule:nonzero;"/>
        </g>
        <g transform="matrix(-3.73081,-1.85531,-1.85531,3.73081,1411.2,452.794)">
            <ellipse cx="-12.867" cy="-25.88" rx="5.782" ry="28.905" style="fill:none;stroke:rgb(0,32,87);stroke-width:0.34px;"/>
        </g>
        <g transform="matrix(-99.1667,80.2792,80.2792,99.1667,1675.48,301.535)">
            <clipPath id="_clip24">
                <path d="M0.446,1.101L2.585,1.101L2.585,-1.043L0.446,-1.043L0.446,1.101Z" clip-rule="nonzero"/>
            </clipPath>
            <g clip-path="url(#_clip24)">
                <path d="M1.563,-0.364C1.992,-0.292 2.327,-0.164 2.313,-0.079L2.224,0.446C2.239,0.36 1.903,0.232 1.475,0.16C1.046,0.087 0.687,0.098 0.673,0.184L0.761,-0.34C0.763,-0.349 0.768,-0.358 0.778,-0.365C0.854,-0.427 1.181,-0.429 1.563,-0.364Z" style="fill:url(#_Linear25);fill-rule:nonzero;"/>
            </g>
        </g>
        <g transform="matrix(4.16667,0,0,4.16667,1490.67,321.596)">
            <path d="M0,48.647C-1.99,46.884 3.526,37.373 12.332,27.402C21.135,17.428 29.888,10.766 31.884,12.525L19.678,1.757C17.685,0 8.929,6.657 0.126,16.631C-8.676,26.605 -14.195,36.115 -12.204,37.876L0,48.647Z" style="fill:none;fill-rule:nonzero;stroke:rgb(108,110,112);stroke-width:0.34px;"/>
        </g>
        <g transform="matrix(-3.12382,-2.75732,-2.75732,3.12382,1457.5,461.508)">
            <path d="M-15.94,-42.153C-13.28,-42.151 -11.126,-31.363 -11.127,-18.061C-11.123,-4.758 -13.281,6.024 -15.94,6.028C-18.604,6.026 -20.76,-4.755 -20.759,-18.06C-20.759,-31.363 -18.603,-42.147 -15.94,-42.153" style="fill:rgb(99,100,102);fill-rule:nonzero;"/>
        </g>
        <g transform="matrix(-3.12382,-2.75732,-2.75732,3.12382,1457.5,461.508)">
            <ellipse cx="-15.941" cy="-18.062" rx="4.819" ry="24.09" style="fill:none;stroke:rgb(35,31,32);stroke-width:0.34px;"/>
        </g>
        <g transform="matrix(184.3,0,0,-184.3,1376.55,361.721)">
            <path d="M0.197,0.155C0.036,-0.168 -0.042,-0.456 0.023,-0.488L0.418,-0.685C0.354,-0.653 0.431,-0.365 0.592,-0.042C0.753,0.282 0.935,0.517 1,0.485L0.605,0.682C0.601,0.684 0.596,0.685 0.591,0.685C0.518,0.685 0.347,0.458 0.197,0.155Z" style="fill:url(#_Linear26);fill-rule:nonzero;"/>
        </g>
        <g transform="matrix(4.16667,0,0,4.16667,1453.61,230.125)">
            <path d="M0,61.875C-2.856,60.456 0.587,47.712 7.691,33.424C14.799,19.13 22.879,8.692 25.74,10.117L8.252,1.423C5.387,0 -2.689,10.431 -9.797,24.73C-16.903,39.024 -20.344,51.763 -17.489,53.183L0,61.875Z" style="fill:none;fill-rule:nonzero;stroke:rgb(0,74,128);stroke-width:0.34px;"/>
        </g>
        <g transform="matrix(-2.19517,-3.54152,-3.54152,2.19517,1517.97,465.649)">
            <path d="M-24.572,-44.137C-21.379,-44.133 -18.79,-31.189 -18.792,-15.233C-18.794,0.735 -21.38,13.676 -24.572,13.674C-27.766,13.671 -30.353,0.737 -30.353,-15.23C-30.349,-31.19 -27.758,-44.136 -24.572,-44.137" style="fill:rgb(35,31,32);fill-rule:nonzero;"/>
        </g>
        <g transform="matrix(-2.19517,-3.54152,-3.54152,2.19517,1517.97,465.649)">
            <ellipse cx="-24.572" cy="-15.231" rx="5.782" ry="28.906" style="fill:none;stroke:rgb(0,32,87);stroke-width:0.34px;stroke-miterlimit:4;"/>
        </g>
        <g transform="matrix(-151.113,94.4458,94.4458,151.113,1821.65,438.09)">
            <clipPath id="_clip27">
                <path d="M0.643,0.649L2.048,0.649L2.048,-0.602L0.643,-0.602L0.643,0.649Z" clip-rule="nonzero"/>
            </clipPath>
            <g clip-path="url(#_clip27)">
                <path d="M1.267,-0.25C1.567,-0.332 1.824,-0.349 1.84,-0.289L1.94,0.078C1.924,0.018 1.667,0.035 1.367,0.117C1.067,0.199 0.837,0.314 0.853,0.373L0.753,0.006C0.747,-0.016 0.775,-0.045 0.827,-0.078C0.916,-0.134 1.078,-0.199 1.267,-0.25Z" style="fill:url(#_Linear28);fill-rule:nonzero;"/>
            </g>
        </g>
        <g transform="matrix(4.16667,0,0,4.16667,1535.86,499.575)">
            <path d="M0,32.047C-0.77,29.5 8.934,24.315 21.668,20.477C34.403,16.631 45.351,15.581 46.114,18.124L41.414,2.543C40.647,0 29.699,1.051 16.964,4.896C4.225,8.74 -5.472,13.92 -4.704,16.466L0,32.047Z" style="fill:none;fill-rule:nonzero;stroke:rgb(108,110,112);stroke-width:0.34px;"/>
        </g>
        <g transform="matrix(-1.20433,-3.98882,-3.98882,1.20433,1576.41,520.531)">
            <path d="M-23.052,-31.044C-20.397,-31.049 -18.238,-20.265 -18.238,-6.962C-18.233,6.338 -20.392,17.127 -23.052,17.126C-25.71,17.124 -27.868,6.337 -27.872,-6.964C-27.874,-20.265 -25.715,-31.052 -23.052,-31.044" style="fill:rgb(99,100,102);fill-rule:nonzero;"/>
        </g>
        <g transform="matrix(-1.20433,-3.98882,-3.98882,1.20433,1576.41,520.531)">
            <ellipse cx="-23.053" cy="-6.962" rx="4.82" ry="24.089" style="fill:none;stroke:rgb(35,31,32);stroke-width:0.34px;"/>
        </g>
        <g transform="matrix(248.417,0,0,-248.417,1479.81,483.029)">
            <path d="M0.364,0.215C0.137,0.074 -0.025,-0.077 0.003,-0.123L0.176,-0.401C0.148,-0.356 0.309,-0.204 0.537,-0.063C0.764,0.078 0.972,0.155 1,0.11L0.827,0.388C0.822,0.397 0.81,0.401 0.792,0.401C0.718,0.401 0.548,0.329 0.364,0.215Z" style="fill:url(#_Linear29);fill-rule:nonzero;"/>
        </g>
        <g transform="matrix(4.16667,0,0,4.16667,1523.48,375.3)">
            <path d="M0,49.773C-1.681,47.061 7.956,38.045 21.526,29.631C35.088,21.223 47.453,16.604 49.137,19.316L38.844,2.713C37.161,0 24.8,4.619 11.229,13.032C-2.335,21.442 -11.974,30.464 -10.291,33.172L0,49.773Z" style="fill:none;fill-rule:nonzero;stroke:rgb(0,74,128);stroke-width:0.34px;stroke-miterlimit:4;"/>
        </g>
        <g transform="matrix(-0.00252263,-4.16667,-4.16667,0.00252263,1653.3,579.523)">
            <path d="M-28.903,-28.925C-25.713,-28.924 -23.126,-15.983 -23.125,-0.021C-23.124,15.945 -25.712,28.884 -28.903,28.886C-32.096,28.884 -34.684,15.947 -34.686,-0.018C-34.69,-15.981 -32.1,-28.923 -28.903,-28.925" style="fill:rgb(35,31,32);fill-rule:nonzero;"/>
        </g>
        <g transform="matrix(-0.00252263,-4.16667,-4.16667,0.00252263,1653.3,579.523)">
            <ellipse cx="-28.907" cy="-0.02" rx="5.783" ry="28.905" style="fill:none;stroke:rgb(0,32,87);stroke-width:0.34px;"/>
        </g>
        <g transform="matrix(-179.446,-33.0554,-33.0554,179.446,1867.49,779.65)">
            <clipPath id="_clip30">
                <path d="M0.713,0.464L1.991,0.464L1.991,-0.416L0.713,-0.416L0.713,0.464Z" clip-rule="nonzero"/>
            </clipPath>
            <g clip-path="url(#_clip30)">
                <path d="M1.89,-0.185L1.919,0.185C1.914,0.124 1.665,0.095 1.362,0.119C1.059,0.143 0.818,0.211 0.823,0.272L0.793,-0.099C0.788,-0.159 1.03,-0.228 1.333,-0.252C1.512,-0.266 1.673,-0.261 1.775,-0.242C1.845,-0.23 1.888,-0.21 1.89,-0.185Z" style="fill:url(#_Linear31);fill-rule:nonzero;"/>
            </g>
        </g>
        <g transform="matrix(4.16667,0,0,4.16667,1516.98,725.058)">
            <path d="M0,5.841C0.692,3.272 11.664,3.976 24.516,7.412C37.368,10.846 47.229,15.718 46.542,18.29L50.748,2.562C51.435,-0.005 41.572,-4.876 28.721,-8.312C15.871,-11.747 4.896,-12.449 4.207,-9.877L0,5.841Z" style="fill:none;fill-rule:nonzero;stroke:rgb(108,110,112);stroke-width:0.34px;"/>
        </g>
        <g transform="matrix(1.07665,-4.02516,-4.02516,-1.07665,1664.05,688.371)">
            <path d="M-23.268,-17.865C-20.606,-17.864 -18.449,-7.08 -18.451,6.224C-18.454,19.527 -20.609,30.308 -23.268,30.314C-25.931,30.309 -28.084,19.525 -28.089,6.223C-28.083,-7.081 -25.93,-17.862 -23.268,-17.865" style="fill:rgb(99,100,102);fill-rule:nonzero;"/>
        </g>
        <g transform="matrix(1.07665,-4.02516,-4.02516,-1.07665,1664.05,688.371)">
            <ellipse cx="-23.269" cy="6.224" rx="4.82" ry="24.089" style="fill:none;stroke:rgb(35,31,32);stroke-width:0.34px;"/>
        </g>
        <g transform="matrix(240.917,0,0,-240.917,1532.98,647.267)">
            <path d="M0.5,0.219C0.224,0.219 -0,0.174 -0,0.119L0,-0.219C0,-0.164 0.224,-0.119 0.5,-0.119C0.776,-0.119 1,-0.163 1,-0.218L1,0.119C1,0.174 0.776,0.219 0.501,0.219L0.5,0.219Z" style="fill:url(#_Linear32);fill-rule:nonzero;"/>
        </g>
        <g transform="matrix(4.16667,0,0,4.16667,1533.01,594.479)">
            <path d="M0,25.332C0,22.141 12.935,19.545 28.904,19.537C44.865,19.528 57.809,22.107 57.81,25.296L57.8,5.775C57.797,2.581 44.851,0 28.89,0.007C12.927,0.012 -0.01,2.612 -0.01,5.802L0,25.332Z" style="fill:none;fill-rule:nonzero;stroke:rgb(0,74,128);stroke-width:0.34px;stroke-miterlimit:4;"/>
        </g>
        <g transform="matrix(2.19185,-3.54357,-3.54357,-2.19185,1689.53,814.375)">
            <path d="M-24.583,-13.698C-21.391,-13.699 -18.803,-0.756 -18.802,15.202C-18.799,31.167 -21.39,44.109 -24.583,44.111C-27.772,44.113 -30.363,31.17 -30.362,15.208C-30.366,-0.758 -27.772,-13.696 -24.583,-13.698" style="fill:rgb(35,31,32);fill-rule:nonzero;"/>
        </g>
        <g transform="matrix(2.19185,-3.54357,-3.54357,-2.19185,1689.53,814.375)">
            <ellipse cx="-24.582" cy="15.207" rx="5.784" ry="28.906" style="fill:none;stroke:rgb(0,32,87);stroke-width:0.34px;"/>
        </g>
        <g transform="matrix(-113.333,-113.333,-113.333,113.333,1696.13,1037.17)">
            <path d="M1.996,-0.169L2.008,0.254C2.006,0.185 1.724,0.137 1.379,0.148C1.033,0.158 0.754,0.223 0.757,0.292L0.744,-0.131C0.742,-0.2 1.02,-0.265 1.366,-0.275C1.672,-0.284 1.928,-0.248 1.984,-0.192C1.991,-0.185 1.995,-0.177 1.996,-0.169Z" style="fill:url(#_Linear33);fill-rule:nonzero;"/>
        </g>
        <g transform="matrix(4.16667,0,0,4.16667,1439.72,930.438)">
            <path d="M0,-22.101C1.943,-23.926 10.9,-17.548 20.017,-7.858C29.136,1.827 34.955,11.155 33.017,12.981L44.869,1.827C46.802,-0.001 40.987,-9.328 31.868,-19.02C22.754,-28.702 13.792,-35.082 11.852,-33.256L0,-22.101Z" style="fill:none;fill-rule:nonzero;stroke:rgb(108,110,112);stroke-width:0.34px;"/>
        </g>
        <g transform="matrix(3.03414,-2.85571,-2.85571,-3.03414,1608.69,917.517)">
            <path d="M-16.509,-6.546C-13.845,-6.546 -11.691,4.236 -11.692,17.537C-11.691,30.843 -13.842,41.626 -16.509,41.629C-19.171,41.629 -21.319,30.847 -21.325,17.545C-21.328,4.239 -19.169,-6.548 -16.509,-6.546" style="fill:rgb(99,100,102);fill-rule:nonzero;"/>
        </g>
        <g transform="matrix(3.03414,-2.85571,-2.85571,-3.03414,1608.69,917.517)">
            <ellipse cx="-16.51" cy="17.541" rx="4.819" ry="24.088" style="fill:none;stroke:rgb(35,31,32);stroke-width:0.34px;"/>
        </g>
        <g transform="matrix(4.16667,0,0,4.16667,1479.33,850.992)">
            <path d="M0,-11.085C1.682,-13.8 14.051,-9.197 27.627,-0.795C41.198,7.601 50.844,16.609 49.164,19.324L59.441,2.715C61.119,-0.003 51.471,-9.013 37.897,-17.409C24.321,-25.806 11.951,-30.409 10.277,-27.698" style="fill:rgb(1,118,174);fill-rule:nonzero;"/>
        </g>
        <g transform="matrix(4.16667,0,0,4.16667,1479.33,850.992)">
            <path d="M0,-11.085C1.682,-13.8 14.051,-9.197 27.627,-0.795C41.198,7.601 50.844,16.609 49.164,19.324L59.441,2.715C61.119,-0.003 51.471,-9.013 37.897,-17.409C24.321,-25.806 11.951,-30.409 10.277,-27.698L0,-11.085Z" style="fill:none;fill-rule:nonzero;stroke:rgb(0,74,128);stroke-width:0.34px;"/>
        </g>
        <g transform="matrix(3.72895,-1.85904,-1.85904,-3.72895,1518.71,1041.01)">
            <path d="M-12.895,-3.036C-9.706,-3.042 -7.114,9.899 -7.115,25.861C-7.114,41.83 -9.7,54.772 -12.895,54.769C-16.086,54.77 -18.676,41.829 -18.678,25.867C-18.675,9.904 -16.095,-3.039 -12.895,-3.036" style="fill:rgb(35,31,32);fill-rule:nonzero;"/>
        </g>
        <g transform="matrix(3.72895,-1.85904,-1.85904,-3.72895,1518.71,1041.01)">
            <ellipse cx="-12.896" cy="25.865" rx="5.782" ry="28.907" style="fill:none;stroke:rgb(0,32,87);stroke-width:0.34px;"/>
        </g>
        <g transform="matrix(-48.4792,-155.133,-155.133,48.4792,1422.71,1184.4)">
            <clipPath id="_clip34">
                <path d="M0.684,0.692L2.176,0.692L2.176,-0.542L0.684,-0.542L0.684,0.692Z" clip-rule="nonzero"/>
            </clipPath>
            <g clip-path="url(#_clip34)">
                <path d="M2.032,-0.147L2.096,0.334C2.085,0.256 1.799,0.211 1.456,0.235C1.114,0.258 0.804,0.179 0.814,0.258L0.72,-0.089C0.71,-0.168 1.036,-0.268 1.379,-0.292C1.713,-0.315 2.007,-0.231 2.031,-0.153C2.031,-0.151 2.032,-0.15 2.032,-0.147Z" style="fill:url(#_Linear35);fill-rule:nonzero;"/>
            </g>
        </g>
        <g transform="matrix(4.16667,0,0,4.16667,1269.23,1054.86)">
            <path d="M0,-43.046C3.055,-43.576 8.048,-33.439 11.154,-20.404C14.26,-7.366 20.83,3.243 17.776,3.776L31.765,3.23C34.818,2.703 34.776,-10.61 31.673,-23.647C28.564,-36.681 21.738,-46.822 18.683,-46.289L0,-43.046Z" style="fill:none;fill-rule:nonzero;stroke:rgb(108,110,112);stroke-width:0.34px;"/>
        </g>
        <g transform="matrix(4.11924,-0.626882,-0.626882,-4.11924,1355.74,1067.22)">
            <path d="M-3.592,-0.271C-1.583,-0.042 0.046,10.834 0.049,24.024C0.048,37.206 -1.584,47.708 -3.592,47.478C-5.597,47.25 -7.227,36.373 -7.224,23.186C-7.225,9.999 -5.599,-0.502 -3.592,-0.271" style="fill:rgb(99,100,102);fill-rule:nonzero;"/>
        </g>
        <g transform="matrix(4.11924,-0.626882,-0.626882,-4.11924,1355.74,1067.22)">
            <path d="M-3.592,-0.271C-1.583,-0.042 0.046,10.834 0.049,24.024C0.048,37.206 -1.584,47.708 -3.592,47.478C-5.597,47.25 -7.227,36.373 -7.224,23.186C-7.225,9.999 -5.599,-0.502 -3.592,-0.271Z" style="fill:none;fill-rule:nonzero;stroke:rgb(35,31,32);stroke-width:0.34px;"/>
        </g>
        <g transform="matrix(184.454,0,0,-184.454,1368.81,950.104)">
            <path d="M0.395,0.681L-0,0.484C0.065,0.517 0.247,0.281 0.408,-0.042C0.569,-0.364 0.647,-0.652 0.583,-0.684L0.977,-0.487C1.042,-0.455 0.964,-0.168 0.803,0.155C0.652,0.458 0.482,0.684 0.408,0.684C0.403,0.684 0.399,0.683 0.395,0.681Z" style="fill:url(#_Linear36);fill-rule:nonzero;"/>
        </g>
        <g transform="matrix(4.16667,0,0,4.16667,1368.81,1034.07)">
            <path d="M0,-41.596C2.858,-43.024 10.945,-32.596 18.071,-18.304C25.193,-4.019 28.647,8.719 25.791,10.137L43.265,1.429C46.125,0.003 42.669,-12.732 35.549,-27.018C28.426,-41.305 20.336,-51.733 17.482,-50.307L0,-41.596Z" style="fill:none;fill-rule:nonzero;stroke:rgb(0,74,128);stroke-width:0.34px;"/>
        </g>
        <g transform="matrix(151.358,0,0,-151.358,1158.39,980.058)">
            <path d="M0.37,0.053C0.25,-0.369 0.085,-0.693 0,-0.669L0.517,-0.815C0.602,-0.839 0.768,-0.516 0.887,-0.093C1.007,0.329 1.036,0.692 0.951,0.716L0.434,0.862C0.519,0.838 0.49,0.476 0.37,0.053Z" style="fill:url(#_Linear37);fill-rule:nonzero;"/>
        </g>
        <g transform="matrix(4.16667,0,0,4.16667,1224.1,1107.11)">
            <path d="M0,-61.812C3.072,-60.943 2.033,-47.787 -2.322,-32.426C-6.681,-17.07 -12.697,-5.325 -15.769,-6.195L3.017,-0.867C6.091,0 12.112,-11.742 16.47,-27.1C20.822,-42.456 21.864,-55.612 18.792,-56.486L0,-61.812Z" style="fill:none;fill-rule:nonzero;stroke:rgb(0,74,128);stroke-width:0.34px;stroke-miterlimit:4;"/>
        </g>
        <g transform="matrix(-12.2896,-497.163,-497.163,12.2896,1319.33,902.721)">
            <clipPath id="_clip38">
                <path d="M-0.085,0.585L1.014,0.585L1.014,-0.583L-0.085,-0.583L-0.085,0.585Z" clip-rule="nonzero"/>
            </clipPath>
            <g clip-path="url(#_clip38)">
                <path d="M0.767,0.423C0.533,0.57 0.225,0.5 0.077,0.267C-0.07,0.033 -0,-0.276 0.233,-0.423C0.467,-0.57 0.776,-0.5 0.923,-0.267C0.973,-0.188 0.998,-0.1 1,-0.013C1.004,0.157 0.921,0.325 0.767,0.423Z" style="fill:url(#_Linear39);fill-rule:nonzero;"/>
            </g>
        </g>
        <g transform="matrix(-12.5896,-509.304,-509.304,12.5896,1319.41,908.793)">
            <clipPath id="_clip40">
                <path d="M-0,0.5L1,0.5L1,-0.5L-0,-0.5L-0,0.5Z" clip-rule="nonzero"/>
            </clipPath>
            <g clip-path="url(#_clip40)">
                <path d="M0.988,-0.009C0.991,0.156 0.91,0.318 0.76,0.413C0.684,0.461 0.599,0.485 0.515,0.488L0.51,0.488C0.345,0.491 0.182,0.41 0.087,0.26C0.039,0.184 0.015,0.099 0.012,0.015L0.012,0.01C0.009,-0.155 0.09,-0.318 0.24,-0.413C0.316,-0.461 0.401,-0.485 0.485,-0.488L0.49,-0.488C0.655,-0.491 0.818,-0.41 0.913,-0.261C0.961,-0.184 0.985,-0.1 0.988,-0.016L0.988,-0.009Z" style="fill:url(#_Linear41);fill-rule:nonzero;"/>
            </g>
        </g>
        <g transform="matrix(1.85037e-14,483.739,483.739,-1.85037e-14,1313.19,411.288)">
            <clipPath id="_clip42">
                <path d="M1.025,-0.499L0.001,-0.525L-0.025,0.499L0.999,0.525L1.025,-0.499Z" clip-rule="nonzero"/>
            </clipPath>
            <g clip-path="url(#_clip42)">
                <ellipse cx="0.5" cy="0" rx="0.5" ry="0.5" style="fill:url(#_Linear43);"/>
            </g>
        </g>
        <g transform="matrix(2.22045e-14,473.866,473.866,-2.22045e-14,1313.18,416.216)">
            <clipPath id="_clip44">
                <path d="M1.025,-0.499L0.001,-0.525L-0.025,0.499L0.999,0.525L1.025,-0.499Z" clip-rule="nonzero"/>
            </clipPath>
            <g clip-path="url(#_clip44)">
                <ellipse cx="0.5" cy="-0" rx="0.5" ry="0.5" style="fill:url(#_Linear45);"/>
            </g>
        </g>
        <g transform="matrix(3.51571e-14,463.988,463.988,-3.51571e-14,1313.18,421.167)">
            <clipPath id="_clip46">
                <path d="M1.025,-0.499L0.001,-0.525L-0.025,0.499L0.999,0.525L1.025,-0.499Z" clip-rule="nonzero"/>
            </clipPath>
            <g clip-path="url(#_clip46)">
                <ellipse cx="0.5" cy="-0" rx="0.5" ry="0.5" style="fill:url(#_Linear47);"/>
            </g>
        </g>
        <g transform="matrix(-7.03141e-14,454.122,454.122,7.03141e-14,1313.19,426.093)">
            <clipPath id="_clip48">
                <path d="M1.025,-0.499L0.001,-0.525L-0.025,0.499L0.999,0.525L1.025,-0.499Z" clip-rule="nonzero"/>
            </clipPath>
            <g clip-path="url(#_clip48)">
                <ellipse cx="0.5" cy="-0" rx="0.5" ry="0.5" style="fill:url(#_Linear49);"/>
            </g>
        </g>
        <g transform="matrix(1.66533e-14,444.248,444.248,-1.66533e-14,1313.19,431.032)">
            <clipPath id="_clip50">
                <path d="M1.025,-0.499L0.001,-0.525L-0.025,0.499L0.999,0.525L1.025,-0.499Z" clip-rule="nonzero"/>
            </clipPath>
            <g clip-path="url(#_clip50)">
                <ellipse cx="0.5" cy="0" rx="0.5" ry="0.5" style="fill:url(#_Linear51);"/>
            </g>
        </g>
        <g transform="matrix(1.85037e-15,434.374,434.374,-1.85037e-15,1313.18,435.967)">
            <clipPath id="_clip52">
                <path d="M1.025,-0.499L0.001,-0.525L-0.025,0.499L0.999,0.525L1.025,-0.499Z" clip-rule="nonzero"/>
            </clipPath>
            <g clip-path="url(#_clip52)">
                <circle cx="0.5" cy="0" r="0.5" style="fill:url(#_Linear53);"/>
            </g>
        </g>
        <g transform="matrix(-1.85037e-14,424.496,424.496,1.85037e-14,1313.19,440.906)">
            <clipPath id="_clip54">
                <path d="M1.025,-0.499L0.001,-0.525L-0.025,0.499L0.999,0.525L1.025,-0.499Z" clip-rule="nonzero"/>
            </clipPath>
            <g clip-path="url(#_clip54)">
                <ellipse cx="0.5" cy="-0" rx="0.5" ry="0.5" style="fill:url(#_Linear55);"/>
            </g>
        </g>
        <g transform="matrix(4.16667,0,0,4.16667,0,0)">
            <text x="305.023px" y="332.14px" style="font-family:'ArialMT', 'Arial', sans-serif;font-size:76.315px;fill:rgb(35,31,32);">2</text>
        </g>
        <g transform="matrix(4.16667,0,0,4.16667,0,0)">
            <text x="305.023px" y="393.344px" style="font-family:'ArialMT', 'Arial', sans-serif;font-size:76.315px;fill:rgb(35,31,32);">0</text>
        </g>
        <g transform="matrix(4.16667,0,0,4.16667,0,0)">
            <text x="305.023px" y="454.549px" style="font-family:'ArialMT', 'Arial', sans-serif;font-size:76.315px;fill:rgb(35,31,32);">2</text>
        </g>
        <g transform="matrix(4.16667,0,0,4.16667,0,0)">
            <text x="305.023px" y="515.753px" style="font-family:'ArialMT', 'Arial', sans-serif;font-size:76.315px;fill:rgb(35,31,32);">3</text>
        </g>
        <g transform="matrix(4.16667,0,0,4.16667,0,0)">
            <text x="301.623px" y="330.44px" style="font-family:'ArialMT', 'Arial', sans-serif;font-size:76.315px;fill:white;">2</text>
        </g>
        <g transform="matrix(4.16667,0,0,4.16667,0,0)">
            <text x="301.623px" y="391.644px" style="font-family:'ArialMT', 'Arial', sans-serif;font-size:76.315px;fill:white;">0</text>
        </g>
        <g transform="matrix(4.16667,0,0,4.16667,0,0)">
            <text x="301.623px" y="452.849px" style="font-family:'ArialMT', 'Arial', sans-serif;font-size:76.315px;fill:white;">2</text>
        </g>
        <g transform="matrix(4.16667,0,0,4.16667,0,0)">
            <text x="301.623px" y="514.053px" style="font-family:'ArialMT', 'Arial', sans-serif;font-size:76.315px;fill:white;">3</text>
        </g>
        <g transform="matrix(4.16667,0,0,4.16667,0,0)">
            <text x="275.506px" y="171.339px" style="font-family:'ArialMT', 'Arial', sans-serif;font-size:68px;fill:rgb(35,31,32);">B</text>
            <text x="308.768px" y="171.339px" style="font-family:'ArialMT', 'Arial', sans-serif;font-size:52.7px;fill:rgb(35,31,32);">e<tspan x="328.706px 345.684px " y="171.339px 171.339px ">st</tspan></text>
        </g>
        <g transform="matrix(4.16667,0,0,4.16667,0,0)">
            <text x="272.106px" y="171.339px" style="font-family:'ArialMT', 'Arial', sans-serif;font-size:68px;fill:white;">B</text>
            <text x="305.368px" y="171.339px" style="font-family:'ArialMT', 'Arial', sans-serif;font-size:52.7px;fill:white;">e<tspan x="325.306px 342.284px " y="171.339px 171.339px ">st</tspan></text>
        </g>
        <g transform="matrix(4.16667,0,0,4.16667,0,0)">
            <text x="308.031px" y="199.187px" style="font-family:'ArialMT', 'Arial', sans-serif;font-size:25.5px;fill:rgb(35,31,32);">o<tspan x="321.571px " y="199.187px ">f</tspan></text>
        </g>
        <g transform="matrix(4.16667,0,0,4.16667,0,0)">
            <text x="306.322px" y="199.187px" style="font-family:'ArialMT', 'Arial', sans-serif;font-size:25.5px;fill:white;">o<tspan x="319.863px " y="199.187px ">f</tspan></text>
        </g>
        <g transform="matrix(1.57567,-3.85725,3.85725,1.57567,0,0)">
            <text x="-366.725px" y="392.991px" style="font-family:'Arial-BoldItalicMT', 'Arial', sans-serif;font-weight:700;font-style:italic;font-size:25.5px;fill:white;">Me<tspan x="-331.452px -323.036px -313.189px -297.688px -282.187px -266.687px -259.678px -252.669px -244.253px " y="392.991px 392.991px 392.991px 392.991px 392.991px 392.991px 392.991px 392.991px 392.991px ">tropolita</tspan>n</text>
        </g>
        <g transform="matrix(1.73956,3.78616,-3.78616,1.73956,0,0)">
            <text x="487.186px" y="-181.581px" style="font-family:'Arial-BoldItalicMT', 'Arial', sans-serif;font-weight:700;font-style:italic;font-size:25.5px;fill:white;">M<tspan x="508.203px 522.159px 537.51px 551.467px 563.992px 570.851px 586.203px " y="-181.581px -181.581px -181.581px -181.581px -181.581px -181.581px -181.581px ">agazine</tspan></text>
        </g>
        <g transform="matrix(4.16667,0,0,4.16667,1396.64,801.337)">
            <path d="M0,0L16.189,0" style="fill:none;fill-rule:nonzero;stroke:rgb(35,31,32);stroke-width:1.7px;stroke-linejoin:miter;"/>
        </g>
        <g transform="matrix(4.16667,0,0,4.16667,1396.64,795.333)">
            <path d="M0,0L16.189,0" style="fill:none;fill-rule:nonzero;stroke:white;stroke-width:1.7px;stroke-linejoin:miter;"/>
        </g>
        <g transform="matrix(4.16667,0,0,4.16667,1179.23,801.525)">
            <path d="M0,0L16.189,0" style="fill:none;fill-rule:nonzero;stroke:rgb(35,31,32);stroke-width:1.7px;stroke-linejoin:miter;"/>
        </g>
        <g transform="matrix(4.16667,0,0,4.16667,1179.23,795.521)">
            <path d="M0,0L16.189,0" style="fill:none;fill-rule:nonzero;stroke:white;stroke-width:1.7px;stroke-linejoin:miter;"/>
        </g>
    </g>
    <defs>
        <linearGradient id="_Linear2" x1="0" y1="0" x2="1" y2="0" gradientUnits="userSpaceOnUse" gradientTransform="matrix(0.226819,-0.973937,-0.973937,-0.226819,0.573192,0.722021)"><stop offset="0" style="stop-color:rgb(123,211,247);stop-opacity:1"/><stop offset="0.01" style="stop-color:rgb(123,211,247);stop-opacity:1"/><stop offset="1" style="stop-color:rgb(0,88,150);stop-opacity:1"/></linearGradient>
        <linearGradient id="_Linear4" x1="0" y1="0" x2="1" y2="0" gradientUnits="userSpaceOnUse" gradientTransform="matrix(1,0,0,-1,0,0.0231936)"><stop offset="0" style="stop-color:rgb(35,31,32);stop-opacity:1"/><stop offset="1" style="stop-color:white;stop-opacity:1"/></linearGradient>
        <linearGradient id="_Linear6" x1="0" y1="0" x2="1" y2="0" gradientUnits="userSpaceOnUse" gradientTransform="matrix(0.226819,-0.973937,-0.973937,-0.226819,0.573191,0.722019)"><stop offset="0" style="stop-color:rgb(123,211,247);stop-opacity:1"/><stop offset="0.01" style="stop-color:rgb(123,211,247);stop-opacity:1"/><stop offset="1" style="stop-color:rgb(0,88,150);stop-opacity:1"/></linearGradient>
        <linearGradient id="_Linear7" x1="0" y1="0" x2="1" y2="0" gradientUnits="userSpaceOnUse" gradientTransform="matrix(1,0,0,-1,0,0.0336221)"><stop offset="0" style="stop-color:rgb(123,211,247);stop-opacity:1"/><stop offset="0.01" style="stop-color:rgb(123,211,247);stop-opacity:1"/><stop offset="1" style="stop-color:rgb(0,114,188);stop-opacity:1"/></linearGradient>
        <linearGradient id="_Linear9" x1="0" y1="0" x2="1" y2="0" gradientUnits="userSpaceOnUse" gradientTransform="matrix(1,0,0,-1,0,-1.48067e-06)"><stop offset="0" style="stop-color:rgb(123,211,247);stop-opacity:1"/><stop offset="0.01" style="stop-color:rgb(123,211,247);stop-opacity:1"/><stop offset="1" style="stop-color:rgb(0,88,150);stop-opacity:1"/><stop offset="1" style="stop-color:rgb(0,88,150);stop-opacity:1"/></linearGradient>
        <linearGradient id="_Linear11" x1="0" y1="0" x2="1" y2="0" gradientUnits="userSpaceOnUse" gradientTransform="matrix(1,1.38778e-17,1.38778e-17,-1,0,0.00477738)"><stop offset="0" style="stop-color:rgb(35,31,32);stop-opacity:1"/><stop offset="1" style="stop-color:white;stop-opacity:1"/></linearGradient>
        <linearGradient id="_Linear12" x1="0" y1="0" x2="1" y2="0" gradientUnits="userSpaceOnUse" gradientTransform="matrix(1,0,0,-1,0,0.0137988)"><stop offset="0" style="stop-color:rgb(123,211,247);stop-opacity:1"/><stop offset="0.01" style="stop-color:rgb(123,211,247);stop-opacity:1"/><stop offset="1" style="stop-color:rgb(0,114,188);stop-opacity:1"/></linearGradient>
        <linearGradient id="_Linear14" x1="0" y1="0" x2="1" y2="0" gradientUnits="userSpaceOnUse" gradientTransform="matrix(1,0,0,-1,0,0.0220588)"><stop offset="0" style="stop-color:rgb(35,31,32);stop-opacity:1"/><stop offset="1" style="stop-color:white;stop-opacity:1"/></linearGradient>
        <linearGradient id="_Linear16" x1="0" y1="0" x2="1" y2="0" gradientUnits="userSpaceOnUse" gradientTransform="matrix(1,5.55112e-17,5.55112e-17,-1,0,0.0294988)"><stop offset="0" style="stop-color:rgb(35,31,32);stop-opacity:1"/><stop offset="1" style="stop-color:white;stop-opacity:1"/></linearGradient>
        <linearGradient id="_Linear17" x1="0" y1="0" x2="1" y2="0" gradientUnits="userSpaceOnUse" gradientTransform="matrix(1,0,0,-1,0,0.0272254)"><stop offset="0" style="stop-color:rgb(123,211,247);stop-opacity:1"/><stop offset="0.01" style="stop-color:rgb(123,211,247);stop-opacity:1"/><stop offset="1" style="stop-color:rgb(0,88,150);stop-opacity:1"/></linearGradient>
        <linearGradient id="_Linear19" x1="0" y1="0" x2="1" y2="0" gradientUnits="userSpaceOnUse" gradientTransform="matrix(1,0,0,-1,0,0.0321885)"><stop offset="0" style="stop-color:rgb(35,31,32);stop-opacity:1"/><stop offset="1" style="stop-color:white;stop-opacity:1"/></linearGradient>
        <linearGradient id="_Linear20" x1="0" y1="0" x2="1" y2="0" gradientUnits="userSpaceOnUse" gradientTransform="matrix(1,0,0,-1,0,0.0325949)"><stop offset="0" style="stop-color:rgb(123,211,247);stop-opacity:1"/><stop offset="0.01" style="stop-color:rgb(123,211,247);stop-opacity:1"/><stop offset="1" style="stop-color:rgb(0,114,188);stop-opacity:1"/></linearGradient>
        <linearGradient id="_Linear22" x1="0" y1="0" x2="1" y2="0" gradientUnits="userSpaceOnUse" gradientTransform="matrix(1,0,0,-1,0,0.023192)"><stop offset="0" style="stop-color:rgb(35,31,32);stop-opacity:1"/><stop offset="1" style="stop-color:white;stop-opacity:1"/></linearGradient>
        <linearGradient id="_Linear23" x1="0" y1="0" x2="1" y2="0" gradientUnits="userSpaceOnUse" gradientTransform="matrix(1,0,0,-1,0,0.0101819)"><stop offset="0" style="stop-color:rgb(123,211,247);stop-opacity:1"/><stop offset="0.01" style="stop-color:rgb(123,211,247);stop-opacity:1"/><stop offset="1" style="stop-color:rgb(0,114,188);stop-opacity:1"/></linearGradient>
        <linearGradient id="_Linear25" x1="0" y1="0" x2="1" y2="0" gradientUnits="userSpaceOnUse" gradientTransform="matrix(1,0,0,-1,0,0.016704)"><stop offset="0" style="stop-color:rgb(35,31,32);stop-opacity:1"/><stop offset="1" style="stop-color:white;stop-opacity:1"/></linearGradient>
        <linearGradient id="_Linear26" x1="0" y1="0" x2="1" y2="0" gradientUnits="userSpaceOnUse" gradientTransform="matrix(1,0,0,-1,0,-2.26081e-05)"><stop offset="0" style="stop-color:rgb(123,211,247);stop-opacity:1"/><stop offset="0.01" style="stop-color:rgb(123,211,247);stop-opacity:1"/><stop offset="1" style="stop-color:rgb(0,114,188);stop-opacity:1"/></linearGradient>
        <linearGradient id="_Linear28" x1="0" y1="0" x2="1" y2="0" gradientUnits="userSpaceOnUse" gradientTransform="matrix(1,0,0,-1,0,0.0242736)"><stop offset="0" style="stop-color:rgb(35,31,32);stop-opacity:1"/><stop offset="1" style="stop-color:white;stop-opacity:1"/></linearGradient>
        <linearGradient id="_Linear29" x1="0" y1="0" x2="1" y2="0" gradientUnits="userSpaceOnUse" gradientTransform="matrix(1,0,0,-1,0,3.55271e-15)"><stop offset="0" style="stop-color:rgb(123,211,247);stop-opacity:1"/><stop offset="0.01" style="stop-color:rgb(123,211,247);stop-opacity:1"/><stop offset="1" style="stop-color:rgb(0,88,150);stop-opacity:1"/></linearGradient>
        <linearGradient id="_Linear31" x1="0" y1="0" x2="1" y2="0" gradientUnits="userSpaceOnUse" gradientTransform="matrix(1,0,0,-1,0,0.00596627)"><stop offset="0" style="stop-color:rgb(35,31,32);stop-opacity:1"/><stop offset="1" style="stop-color:white;stop-opacity:1"/></linearGradient>
        <linearGradient id="_Linear32" x1="0" y1="0" x2="1" y2="0" gradientUnits="userSpaceOnUse" gradientTransform="matrix(1,0,0,-1,0,-1.33227e-15)"><stop offset="0" style="stop-color:rgb(123,211,247);stop-opacity:1"/><stop offset="0.01" style="stop-color:rgb(123,211,247);stop-opacity:1"/><stop offset="1" style="stop-color:rgb(0,114,188);stop-opacity:1"/></linearGradient>
        <linearGradient id="_Linear33" x1="0" y1="0" x2="1" y2="0" gradientUnits="userSpaceOnUse" gradientTransform="matrix(1,0,0,-1,0,0.00773897)"><stop offset="0" style="stop-color:rgb(35,31,32);stop-opacity:1"/><stop offset="1" style="stop-color:white;stop-opacity:1"/></linearGradient>
        <linearGradient id="_Linear35" x1="0" y1="0" x2="1" y2="0" gradientUnits="userSpaceOnUse" gradientTransform="matrix(1,-5.55112e-17,-5.55112e-17,-1,0,0.0191883)"><stop offset="0" style="stop-color:rgb(35,31,32);stop-opacity:1"/><stop offset="1" style="stop-color:white;stop-opacity:1"/></linearGradient>
        <linearGradient id="_Linear36" x1="0" y1="0" x2="1" y2="0" gradientUnits="userSpaceOnUse" gradientTransform="matrix(1,0,0,-1,0,-2.25892e-05)"><stop offset="0" style="stop-color:rgb(123,211,247);stop-opacity:1"/><stop offset="0.01" style="stop-color:rgb(123,211,247);stop-opacity:1"/><stop offset="1" style="stop-color:rgb(0,114,188);stop-opacity:1"/></linearGradient>
        <linearGradient id="_Linear37" x1="0" y1="0" x2="1" y2="0" gradientUnits="userSpaceOnUse" gradientTransform="matrix(1,0,0,-1,0,0.0227385)"><stop offset="0" style="stop-color:rgb(123,211,247);stop-opacity:1"/><stop offset="0.01" style="stop-color:rgb(123,211,247);stop-opacity:1"/><stop offset="1" style="stop-color:rgb(0,114,188);stop-opacity:1"/></linearGradient>
        <linearGradient id="_Linear39" x1="0" y1="0" x2="1" y2="0" gradientUnits="userSpaceOnUse" gradientTransform="matrix(1,3.46945e-18,3.46945e-18,-1,0,-1.15284e-05)"><stop offset="0" style="stop-color:rgb(123,211,247);stop-opacity:1"/><stop offset="0.01" style="stop-color:rgb(123,211,247);stop-opacity:1"/><stop offset="0.8" style="stop-color:rgb(0,116,189);stop-opacity:1"/><stop offset="1" style="stop-color:rgb(0,114,188);stop-opacity:1"/></linearGradient>
        <linearGradient id="_Linear41" x1="0" y1="0" x2="1" y2="0" gradientUnits="userSpaceOnUse" gradientTransform="matrix(1,-3.46945e-18,-3.46945e-18,-1,0,-0.000141759)"><stop offset="0" style="stop-color:rgb(123,211,247);stop-opacity:1"/><stop offset="0.01" style="stop-color:rgb(123,211,247);stop-opacity:1"/><stop offset="0.8" style="stop-color:rgb(0,116,189);stop-opacity:1"/><stop offset="1" style="stop-color:rgb(0,114,188);stop-opacity:1"/></linearGradient>
        <linearGradient id="_Linear43" x1="0" y1="0" x2="1" y2="0" gradientUnits="userSpaceOnUse" gradientTransform="matrix(-0.999695,-0.024712,-0.024712,0.999695,0.999866,0.0123562)"><stop offset="0" style="stop-color:rgb(123,211,247);stop-opacity:1"/><stop offset="0.01" style="stop-color:rgb(123,211,247);stop-opacity:1"/><stop offset="0.8" style="stop-color:rgb(0,116,189);stop-opacity:1"/><stop offset="1" style="stop-color:rgb(0,114,188);stop-opacity:1"/></linearGradient>
        <linearGradient id="_Linear45" x1="0" y1="0" x2="1" y2="0" gradientUnits="userSpaceOnUse" gradientTransform="matrix(-0.999695,-0.0247117,-0.0247117,0.999695,0.999855,0.0123559)"><stop offset="0" style="stop-color:rgb(123,211,247);stop-opacity:1"/><stop offset="0.01" style="stop-color:rgb(123,211,247);stop-opacity:1"/><stop offset="0.8" style="stop-color:rgb(0,116,189);stop-opacity:1"/><stop offset="1" style="stop-color:rgb(0,114,188);stop-opacity:1"/></linearGradient>
        <linearGradient id="_Linear47" x1="0" y1="0" x2="1" y2="0" gradientUnits="userSpaceOnUse" gradientTransform="matrix(-0.999695,-0.0247115,-0.0247115,0.999695,0.999856,0.0123559)"><stop offset="0" style="stop-color:rgb(123,211,247);stop-opacity:1"/><stop offset="0.01" style="stop-color:rgb(123,211,247);stop-opacity:1"/><stop offset="0.8" style="stop-color:rgb(0,116,189);stop-opacity:1"/><stop offset="1" style="stop-color:rgb(0,114,188);stop-opacity:1"/></linearGradient>
        <linearGradient id="_Linear49" x1="0" y1="0" x2="1" y2="0" gradientUnits="userSpaceOnUse" gradientTransform="matrix(-0.999695,-0.0247116,-0.0247116,0.999695,0.999856,0.0123559)"><stop offset="0" style="stop-color:rgb(123,211,247);stop-opacity:1"/><stop offset="0.01" style="stop-color:rgb(123,211,247);stop-opacity:1"/><stop offset="0.8" style="stop-color:rgb(0,116,189);stop-opacity:1"/><stop offset="1" style="stop-color:rgb(0,114,188);stop-opacity:1"/></linearGradient>
        <linearGradient id="_Linear51" x1="0" y1="0" x2="1" y2="0" gradientUnits="userSpaceOnUse" gradientTransform="matrix(-0.999695,-0.0247112,-0.0247112,0.999695,0.999858,0.0123557)"><stop offset="0" style="stop-color:rgb(123,211,247);stop-opacity:1"/><stop offset="0.01" style="stop-color:rgb(123,211,247);stop-opacity:1"/><stop offset="0.8" style="stop-color:rgb(0,116,189);stop-opacity:1"/><stop offset="1" style="stop-color:rgb(0,114,188);stop-opacity:1"/></linearGradient>
        <linearGradient id="_Linear53" x1="0" y1="0" x2="1" y2="0" gradientUnits="userSpaceOnUse" gradientTransform="matrix(-0.999695,-0.0247118,-0.0247118,0.999695,0.999867,0.0123561)"><stop offset="0" style="stop-color:rgb(123,211,247);stop-opacity:1"/><stop offset="0.01" style="stop-color:rgb(123,211,247);stop-opacity:1"/><stop offset="0.8" style="stop-color:rgb(0,116,189);stop-opacity:1"/><stop offset="1" style="stop-color:rgb(0,114,188);stop-opacity:1"/></linearGradient>
        <linearGradient id="_Linear55" x1="0" y1="0" x2="1" y2="0" gradientUnits="userSpaceOnUse" gradientTransform="matrix(-0.999695,-0.0247116,-0.0247116,0.999695,0.999858,0.0123559)"><stop offset="0" style="stop-color:rgb(123,211,247);stop-opacity:1"/><stop offset="0.01" style="stop-color:rgb(123,211,247);stop-opacity:1"/><stop offset="0.8" style="stop-color:rgb(0,116,189);stop-opacity:1"/><stop offset="1" style="stop-color:rgb(0,114,188);stop-opacity:1"/></linearGradient>
    </defs>
</svg>
